<?xml version="1.0" encoding="utf-8"?>
<!-- Generator: Adobe Illustrator 21.0.2, SVG Export Plug-In . SVG Version: 6.00 Build 0)  -->
<svg version="1.1" id="Layer_1" xmlns="http://www.w3.org/2000/svg" xmlns:xlink="http://www.w3.org/1999/xlink" x="0px" y="0px"
	 viewBox="0 0 500 500" style="enable-background:new 0 0 500 500;" xml:space="preserve">
<style type="text/css">
	.st0{clip-path:url(#SVGID_2_);fill:#7CB342;}
	.st1{clip-path:url(#SVGID_4_);fill:#8BC34A;}
	.st2{opacity:0.2;clip-path:url(#SVGID_6_);fill:#FFFFFF;enable-background:new    ;}
	.st3{opacity:0.2;clip-path:url(#SVGID_8_);fill:#263238;enable-background:new    ;}
	.st4{clip-path:url(#SVGID_10_);}
	.st5{fill:#263238;fill-opacity:5.000000e-02;}
	.st6{fill:#FFFFFF;fill-opacity:5.000000e-02;}
	.st7{clip-path:url(#SVGID_12_);}
	.st8{fill:url(#SVGID_13_);}
	.st9{fill:url(#SVGID_14_);}
	.st10{clip-path:url(#SVGID_16_);}
	.st11{fill:#646464;}
	.st12{clip-path:url(#SVGID_18_);}
	.st13{fill:#E1E1E1;}
	.st14{fill:#FFFFFF;fill-opacity:0.4;}
	.st15{fill:#262626;fill-opacity:0.2;}
	.st16{fill:#F1F1F1;}
	.st17{fill:none;}
	.st18{opacity:0.2;fill:#FFFFFF;enable-background:new    ;}
	.st19{fill:#FFFFFF;fill-opacity:0.2;}
	.st20{opacity:0.2;fill:#262626;enable-background:new    ;}
	.st21{fill:url(#SVGID_19_);fill-opacity:0.1;}
</style>
<g>
	<g>
		<g>
			<g>
				<g>
					<defs>
						<path id="SVGID_1_" d="M427.7,452.5L427.7,452.5l-33.4-57.6c48.6-41.1,79.6-102.4,79.6-171C473.9,100.3,373.5,0,250,0
							S26.1,100.3,26.1,223.9c0,68.6,30.9,130.1,79.6,171.2l-33.4,57.6c-1,1.8-1.6,3.7-1.8,5.7L67.6,496c-0.2,1.4,0.6,2.6,1.8,3.5
							l0,0l0,0c1.2,0.8,2.6,0.6,3.9-0.2l31.3-21.2c1.6-1.2,3.1-2.6,4.1-4.3l0,0l31.5-54.5C172.6,437.6,210.1,448,250,448
							s77.3-10.6,109.9-28.9l31.5,54.5c1,1.8,2.4,3.3,4.1,4.3l31.3,21.4c1.2,0.8,2.6,0.8,3.9,0.2l0,0l0,0c1.2-0.8,1.8-2,1.8-3.5
							l-2.8-37.7C429.3,456.3,428.9,454.3,427.7,452.5z"/>
					</defs>
					<clipPath id="SVGID_2_">
						<use xlink:href="#SVGID_1_"  style="overflow:visible;"/>
					</clipPath>
					<path class="st0" d="M250,0C126.4,0,26.1,100.3,26.1,223.9H250h223.9C474.1,100.1,373.7,0,250,0z"/>
				</g>
			</g>
			<g>
				<g>
					<defs>
						<path id="SVGID_3_" d="M427.7,452.5L427.7,452.5l-33.4-57.6c48.6-41.1,79.6-102.4,79.6-171C473.9,100.3,373.5,0,250,0
							S26.1,100.3,26.1,223.9c0,68.6,30.9,130.1,79.6,171.2l-33.4,57.6c-1,1.8-1.6,3.7-1.8,5.7L67.6,496c-0.2,1.4,0.6,2.6,1.8,3.5
							l0,0l0,0c1.2,0.8,2.6,0.6,3.9-0.2l31.3-21.2c1.6-1.2,3.1-2.6,4.1-4.3l0,0l31.5-54.5C172.6,437.6,210.1,448,250,448
							s77.3-10.6,109.9-28.9l31.5,54.5c1,1.8,2.4,3.3,4.1,4.3l31.3,21.4c1.2,0.8,2.6,0.8,3.9,0.2l0,0l0,0c1.2-0.8,1.8-2,1.8-3.5
							l-2.8-37.7C429.3,456.3,428.9,454.3,427.7,452.5z"/>
					</defs>
					<clipPath id="SVGID_4_">
						<use xlink:href="#SVGID_3_"  style="overflow:visible;"/>
					</clipPath>
					<path class="st1" d="M250,223.9H26.1c0,123.5,100.3,223.9,223.9,223.9s223.9-100.3,223.9-223.9
						C473.9,223.9,250,223.9,250,223.9z"/>
				</g>
			</g>
			<g>
				<g>
					<defs>
						<path id="SVGID_5_" d="M427.7,452.5L427.7,452.5l-33.4-57.6c48.6-41.1,79.6-102.4,79.6-171C473.9,100.3,373.5,0,250,0
							S26.1,100.3,26.1,223.9c0,68.6,30.9,130.1,79.6,171.2l-33.4,57.6c-1,1.8-1.6,3.7-1.8,5.7L67.6,496c-0.2,1.4,0.6,2.6,1.8,3.5
							l0,0l0,0c1.2,0.8,2.6,0.6,3.9-0.2l31.3-21.2c1.6-1.2,3.1-2.6,4.1-4.3l0,0l31.5-54.5C172.6,437.6,210.1,448,250,448
							s77.3-10.6,109.9-28.9l31.5,54.5c1,1.8,2.4,3.3,4.1,4.3l31.3,21.4c1.2,0.8,2.6,0.8,3.9,0.2l0,0l0,0c1.2-0.8,1.8-2,1.8-3.5
							l-2.8-37.7C429.3,456.3,428.9,454.3,427.7,452.5z"/>
					</defs>
					<clipPath id="SVGID_6_">
						<use xlink:href="#SVGID_5_"  style="overflow:visible;"/>
					</clipPath>
					<path class="st2" d="M250,2.4c123.1,0,223.3,99.5,223.9,222.7c0-0.4,0-0.8,0-1.2C473.9,100.3,373.5,0,250,0
						C126.4-0.2,26.1,100.1,26.1,223.9c0,0.4,0,0.8,0,1.2C26.9,102.2,126.8,2.4,250,2.4z"/>
				</g>
			</g>
			<g>
				<g>
					<defs>
						<path id="SVGID_7_" d="M427.7,452.5L427.7,452.5l-33.4-57.6c48.6-41.1,79.6-102.4,79.6-171C473.9,100.3,373.5,0,250,0
							S26.1,100.3,26.1,223.9c0,68.6,30.9,130.1,79.6,171.2l-33.4,57.6c-1,1.8-1.6,3.7-1.8,5.7L67.6,496c-0.2,1.4,0.6,2.6,1.8,3.5
							l0,0l0,0c1.2,0.8,2.6,0.6,3.9-0.2l31.3-21.2c1.6-1.2,3.1-2.6,4.1-4.3l0,0l31.5-54.5C172.6,437.6,210.1,448,250,448
							s77.3-10.6,109.9-28.9l31.5,54.5c1,1.8,2.4,3.3,4.1,4.3l31.3,21.4c1.2,0.8,2.6,0.8,3.9,0.2l0,0l0,0c1.2-0.8,1.8-2,1.8-3.5
							l-2.8-37.7C429.3,456.3,428.9,454.3,427.7,452.5z"/>
					</defs>
					<clipPath id="SVGID_8_">
						<use xlink:href="#SVGID_7_"  style="overflow:visible;"/>
					</clipPath>
					<path class="st3" d="M250,445.1c-123.1,0-223.3-99.5-223.9-222.7c0,0.4,0,0.8,0,1.2c0,123.5,100.3,223.9,223.9,223.9
						s223.9-100.3,223.9-223.9c0-0.4,0-0.8,0-1.2C473.3,345.6,373.3,445.1,250,445.1z"/>
				</g>
			</g>
			<g>
				<g>
					<defs>
						<path id="SVGID_9_" d="M427.7,452.5L427.7,452.5l-33.4-57.6c48.6-41.1,79.6-102.4,79.6-171C473.9,100.3,373.5,0,250,0
							S26.1,100.3,26.1,223.9c0,68.6,30.9,130.1,79.6,171.2l-33.4,57.6c-1,1.8-1.6,3.7-1.8,5.7L67.6,496c-0.2,1.4,0.6,2.6,1.8,3.5
							l0,0l0,0c1.2,0.8,2.6,0.6,3.9-0.2l31.3-21.2c1.6-1.2,3.1-2.6,4.1-4.3l0,0l31.5-54.5C172.6,437.6,210.1,448,250,448
							s77.3-10.6,109.9-28.9l31.5,54.5c1,1.8,2.4,3.3,4.1,4.3l31.3,21.4c1.2,0.8,2.6,0.8,3.9,0.2l0,0l0,0c1.2-0.8,1.8-2,1.8-3.5
							l-2.8-37.7C429.3,456.3,428.9,454.3,427.7,452.5z"/>
					</defs>
					<clipPath id="SVGID_10_">
						<use xlink:href="#SVGID_9_"  style="overflow:visible;"/>
					</clipPath>
					<g class="st4">
						<rect x="0" y="221.2" class="st5" width="499.9" height="2.6"/>
						<rect x="0" y="223.9" class="st6" width="499.9" height="2.6"/>
					</g>
				</g>
			</g>
			<g>
				<g>
					<defs>
						<path id="SVGID_11_" d="M427.7,452.5L427.7,452.5l-33.4-57.6c48.6-41.1,79.6-102.4,79.6-171C473.9,100.3,373.5,0,250,0
							S26.1,100.3,26.1,223.9c0,68.6,30.9,130.1,79.6,171.2l-33.4,57.6c-1,1.8-1.6,3.7-1.8,5.7L67.6,496c-0.2,1.4,0.6,2.6,1.8,3.5
							l0,0l0,0c1.2,0.8,2.6,0.6,3.9-0.2l31.3-21.2c1.6-1.2,3.1-2.6,4.1-4.3l0,0l31.5-54.5C172.6,437.6,210.1,448,250,448
							s77.3-10.6,109.9-28.9l31.5,54.5c1,1.8,2.4,3.3,4.1,4.3l31.3,21.4c1.2,0.8,2.6,0.8,3.9,0.2l0,0l0,0c1.2-0.8,1.8-2,1.8-3.5
							l-2.8-37.7C429.3,456.3,428.9,454.3,427.7,452.5z"/>
					</defs>
					<clipPath id="SVGID_12_">
						<use xlink:href="#SVGID_11_"  style="overflow:visible;"/>
					</clipPath>
					<g class="st7">
						
							<linearGradient id="SVGID_13_" gradientUnits="userSpaceOnUse" x1="-588.1251" y1="1088.2798" x2="385.5557" y2="2061.9609" gradientTransform="matrix(0.2559 0 0 0.2559 284.2441 -93.6883)">
							<stop  offset="0.33" style="stop-color:#263238;stop-opacity:0.16"/>
							<stop  offset="1" style="stop-color:#263238;stop-opacity:0"/>
						</linearGradient>
						<path class="st8" d="M411.4,224.3c0-0.2,0-0.4,0-0.4H401l-125-125l0,0l0,0H250h-25.8v0.2v41.7h-13.2
							c-12.8,0-23.4,10.6-23.4,23.4v53.1h0.2c-0.2,1.8,1,4.1,3.5,6.7c0.2,0.2,0.2,0.2,0.2,0.4l8.1,8.1l-93.8,162.6
							c10.8,9.2,22.4,17.1,34.6,24c32.6,18.3,69.8,28.9,109.9,28.9c39.9,0,77.3-10.6,109.9-28.9c12.2-6.9,23.8-15.1,34.6-24
							c33-27.9,57.6-64.9,70.2-107.5c0.8-2.6,1.4-5.3,2.2-7.7L411.4,224.3z"/>
						
							<linearGradient id="SVGID_14_" gradientUnits="userSpaceOnUse" x1="-813.236" y1="1684.9044" x2="-19.4386" y2="1403.3439" gradientTransform="matrix(0.2559 0 0 0.2559 284.2441 -93.6883)">
							<stop  offset="0.33" style="stop-color:#263238;stop-opacity:0.16"/>
							<stop  offset="1" style="stop-color:#263238;stop-opacity:0"/>
						</linearGradient>
						<path class="st9" d="M411.4,224.3c0-0.2,0-0.4,0-0.4H401l-125-125l0,0l0,0H250h-25.8v0.2v41.7h-13.2
							c-12.8,0-23.4,10.6-23.4,23.4v53.1h0.2c-0.2,1.8,1,4.1,3.5,6.7c0.2,0.2,0.2,0.2,0.2,0.4l8.1,8.1l-93.8,162.6
							c10.8,9.2,22.4,17.1,34.6,24c32.6,18.3,69.8,28.9,109.9,28.9c39.9,0,77.3-10.6,109.9-28.9c12.2-6.9,23.8-15.1,34.6-24
							c33-27.9,57.6-64.9,70.2-107.5c0.8-2.6,1.4-5.3,2.2-7.7L411.4,224.3z"/>
					</g>
				</g>
			</g>
			<g>
				<g>
					<defs>
						<path id="SVGID_15_" d="M427.7,452.5L427.7,452.5l-33.4-57.6c48.6-41.1,79.6-102.4,79.6-171C473.9,100.3,373.5,0,250,0
							S26.1,100.3,26.1,223.9c0,68.6,30.9,130.1,79.6,171.2l-33.4,57.6c-1,1.8-1.6,3.7-1.8,5.7L67.6,496c-0.2,1.4,0.6,2.6,1.8,3.5
							l0,0l0,0c1.2,0.8,2.6,0.6,3.9-0.2l31.3-21.2c1.6-1.2,3.1-2.6,4.1-4.3l0,0l31.5-54.5C172.6,437.6,210.1,448,250,448
							s77.3-10.6,109.9-28.9l31.5,54.5c1,1.8,2.4,3.3,4.1,4.3l31.3,21.4c1.2,0.8,2.6,0.8,3.9,0.2l0,0l0,0c1.2-0.8,1.8-2,1.8-3.5
							l-2.8-37.7C429.3,456.3,428.9,454.3,427.7,452.5z"/>
					</defs>
					<clipPath id="SVGID_16_">
						<use xlink:href="#SVGID_15_"  style="overflow:visible;"/>
					</clipPath>
					<g class="st10">
						
							<image style="overflow:visible;opacity:0.2;enable-background:new    ;" width="364" height="400" xlink:href="A6161D4D1AF1D53E.png"  transform="matrix(1.0358 0 0 1.0363 63.6268 93.6512)">
						</image>
						<g>
							<path class="st11" d="M429.5,458.4c-0.2-2-0.8-3.9-1.8-5.7l0,0l-65.1-113c30.1-29.3,49.1-70.4,49.1-115.8h-41.7
								c0,29.7-11,57-29.1,78.2l-40.3-69.6l8.1-8.1c2.6-2.6,3.7-5.1,3.7-6.9h0.2v-53.1c0-12.8-10.6-23.4-23.4-23.4h-13V99.1v-0.2
								H250h-25.8v0.2v41.7h-13.2c-12.8,0-23.4,10.6-23.4,23.4v53.1h0.2c-0.2,2,1,4.3,3.7,6.9l8.1,8.1l-127.2,220
								c-1,1.8-1.6,3.7-1.8,5.7L67.6,496c-0.2,1.4,0.6,2.6,1.8,3.5l0,0l0,0c1.2,0.8,2.6,0.6,3.9-0.2l31.3-21.2
								c1.6-1.2,3.1-2.6,4.1-4.3l0,0l62.9-108.9c23.2,13,50.1,20.6,78.6,20.6s55.4-7.5,78.6-20.6l62.9,108.7c1,1.8,2.4,3.3,4.1,4.3
								l31.3,21.4c1.2,0.8,2.6,0.8,3.9,0.2l0,0l0,0c1.2-0.8,1.8-2,1.8-3.5L429.5,458.4z M250,161.4V161l0.2,0.4
								c17.1,0.2,31.1,14,31.1,31.3s-14,31.1-31.1,31.3H250l0,0c-17.1,0-31.1-14-31.1-31.3C218.8,175.2,232.7,161.4,250,161.4z
								 M250,343.6c-21,0-40.7-5.5-57.6-14.9l37.9-65.5l7.9,7.9c3.3,3.3,7.5,4.9,11.6,4.9v-0.2l0.2,0.2c4.3,0,8.5-1.6,11.6-4.9
								l7.9-7.9l37.9,65.7C290.7,338.3,270.9,343.6,250,343.6z"/>
						</g>
					</g>
				</g>
			</g>
			<g>
				<g>
					<defs>
						<path id="SVGID_17_" d="M427.7,452.5L427.7,452.5l-33.4-57.6c48.6-41.1,79.6-102.4,79.6-171C473.9,100.3,373.5,0,250,0
							S26.1,100.3,26.1,223.9c0,68.6,30.9,130.1,79.6,171.2l-33.4,57.6c-1,1.8-1.6,3.7-1.8,5.7L67.6,496c-0.2,1.4,0.6,2.6,1.8,3.5
							l0,0l0,0c1.2,0.8,2.6,0.6,3.9-0.2l31.3-21.2c1.6-1.2,3.1-2.6,4.1-4.3l0,0l31.5-54.5C172.6,437.6,210.1,448,250,448
							s77.3-10.6,109.9-28.9l31.5,54.5c1,1.8,2.4,3.3,4.1,4.3l31.3,21.4c1.2,0.8,2.6,0.8,3.9,0.2l0,0l0,0c1.2-0.8,1.8-2,1.8-3.5
							l-2.8-37.7C429.3,456.3,428.9,454.3,427.7,452.5z"/>
					</defs>
					<clipPath id="SVGID_18_">
						<use xlink:href="#SVGID_17_"  style="overflow:visible;"/>
					</clipPath>
					<g class="st12">
						<path class="st13" d="M429.5,458.4c-0.2-2-0.8-3.9-1.8-5.7l0,0l-65.1-113L341,302.1l-40.3-69.6l-30.7,30.7l37.9,65.7l20.8,36
							l62.9,108.7c1,1.8,2.4,3.3,4.1,4.3l31.3,21.4c1.2,0.8,2.6,0.8,3.9,0.2l0,0l0,0c1.2-0.8,1.8-2,1.8-3.5L429.5,458.4z"/>
						<path class="st14" d="M340.8,304.5l21.6,37.7l65.3,113l0,0c1,1.8,1.6,3.7,1.8,5.7l2.6,35.8c0-0.2,0.2-0.4,0.2-0.8l-2.8-37.7
							c-0.2-2-0.8-3.9-1.8-5.7l0,0l-65.1-113L341,301.8l-40.3-69.6l-1.2,1.4L340.8,304.5z"/>
						<path class="st15" d="M430.5,496.6L430.5,496.6L430.5,496.6c-1.2,0.8-2.6,0.6-3.9-0.2l-31.3-21.4c-1.6-1.2-3.1-2.6-4.1-4.3
							l-62.9-108.7l-20.8-36l-36.6-63.9l-1,1l37.9,65.7l20.8,36l62.9,108.7c1,1.8,2.4,3.3,4.1,4.3l31.3,21.4
							c1.2,0.8,2.6,0.8,3.9,0.2l0,0l0,0c1.2-0.8,1.8-2,1.8-3.5l-0.2-1.8C431.9,495.2,431.5,496.2,430.5,496.6z"/>
						<path class="st16" d="M369.9,223.9c0,29.7-11,57-29.1,78.2c-9.4,10.8-20.4,19.9-33,26.9c-17.1,9.6-36.8,14.9-57.8,14.9
							s-40.7-5.5-57.6-14.9l37.9-65.7l-30.7-30.7L72.3,452.7c-1,1.8-1.6,3.7-1.8,5.7l-2.8,37.9c-0.2,1.4,0.6,2.6,1.8,3.5l0,0l0,0
							c1.2,0.8,2.6,0.6,3.9-0.2l31.3-21.2c1.6-1.2,3.1-2.6,4.1-4.3l0,0l62.9-108.9c23.2,13,50.1,20.6,78.6,20.6s55.4-7.5,78.6-20.6
							c12.4-6.9,23.8-15.5,33.8-25.2c30.1-29.3,49.1-70.4,49.1-115.8L369.9,223.9L369.9,223.9z"/>
						<path class="st17" d="M261.8,271.1c-3.3,3.3-7.5,4.9-11.6,4.9l-0.2-0.2v0.2c-4.3,0-8.5-1.6-11.6-4.9l-7.9-7.9l-37.9,65.5
							c17.1,9.6,36.8,14.9,57.6,14.9s40.7-5.5,57.8-14.9L270.1,263L261.8,271.1z"/>
						<g>
							<path class="st14" d="M72.3,455.1l128.6-221.7l-1.4-1.2L72.3,452.5c-1,1.8-1.6,3.7-1.8,5.7L67.6,496c0,0.2,0.2,0.4,0.2,0.8
								l2.6-35.8C70.9,459,71.3,456.9,72.3,455.1z"/>
							<path class="st14" d="M250,346.2c21,0,40.7-5.5,57.8-14.9c12.4-6.9,23.6-16.1,33-26.9c18.1-21,29.1-48.2,29.1-78.2h41.5
								c0-0.8,0.2-1.8,0.2-2.6h-41.7c0,29.7-11,57-29.1,78.2c-9.4,10.8-20.4,19.9-33,26.9c-17.1,9.6-36.8,14.9-57.8,14.9
								c-20.6,0-39.7-5.3-56.6-14.5l-1.2,2C209.5,340.7,229.2,346.2,250,346.2z"/>
							<path class="st15" d="M192.4,328.5l37.9-65.3l-1-1l-38.1,65.7C191.6,328.1,192,328.3,192.4,328.5z"/>
							<path class="st15" d="M362.5,336.9c-10.2,9.8-21.4,18.3-33.8,25.2c-23.2,13-50.1,20.6-78.6,20.6s-55.4-7.5-78.6-20.6
								L108.7,471l0,0c-1,1.8-2.4,3.3-4.1,4.3l-31.3,21.2c-1.2,0.8-2.6,0.8-3.9,0.2l0,0l0,0c-1-0.6-1.4-1.6-1.6-2.6l-0.2,1.8
								c-0.2,1.4,0.6,2.6,1.8,3.5l0,0l0,0c1.2,0.6,2.6,0.6,3.9-0.2l31.3-21.2c1.6-1.2,3.1-2.6,4.1-4.3l0,0l62.9-108.9
								c23.2,13,50.1,20.6,78.6,20.6s55.4-7.5,78.6-20.6c12.4-6.9,23.8-15.5,33.8-25.2c30.1-29.3,49.1-70.4,49.1-115.8h-0.2
								C410.8,268.1,392,308.2,362.5,336.9z"/>
						</g>
						<path class="st11" d="M289.1,140.6h-13V98.9v-0.2H250h-25.8v0.2v41.7h-13.2c-12.8,0-23.4,10.6-23.4,23.4v53.1h0.2
							c-0.2,2,1,4.3,3.7,6.9l47,47c3.3,3.3,7.5,4.9,11.6,4.9v-0.2l0.2,0.2c4.3,0,8.5-1.6,11.6-4.9l47-47c2.6-2.6,3.7-5.1,3.7-6.9
							h0.2v-52.9C312.5,151.2,302.1,140.6,289.1,140.6z M250.2,223.9H250l0,0c-17.1,0-31.1-14-31.1-31.3s14-31.3,31.1-31.3v-0.4
							l0.2,0.4c17.1,0.2,31.1,14,31.1,31.3S267.3,223.7,250.2,223.9z"/>
						<path class="st18" d="M276,101.4v-2.4v-0.2H250h-25.8v0.2v2.4H250H276z"/>
						<path class="st19" d="M250.2,221.2H250l0,0c-16.7,0-30.3-13.4-31.1-29.9c0,0.4-0.2,0.8-0.2,1.2c0,17.1,14,31.3,31.1,31.3l0,0
							h0.2c17.1-0.2,31.1-14,31.1-31.3c0-0.4,0-0.8-0.2-1.2C280.5,207.8,266.9,221,250.2,221.2z"/>
						<path class="st18" d="M211.1,143.3h13.2v-2.6h-13.2c-12.8,0-23.4,10.6-23.4,23.4v2.6C187.5,153.9,198.1,143.3,211.1,143.3z"/>
						<path class="st18" d="M289.1,140.6h-13v2.6h13c12.8,0,23.4,10.6,23.4,23.4v-2.4C312.5,151.2,302.1,140.6,289.1,140.6z"/>
						<path class="st20" d="M250.2,161.4L250,161v0.4c-17.1,0-31.1,14-31.1,31.3c0,0.4,0,0.8,0.2,1.2c0.8-16.7,14.5-29.9,31.1-29.9
							v-0.4l0.2,0.4c16.7,0.2,30.3,13.4,30.9,29.9c0-0.4,0.2-0.8,0.2-1.2C281.3,175.4,267.3,161.4,250.2,161.4z"/>
						<path class="st15" d="M308.8,221.7l-47,47c-3.3,3.3-7.5,4.9-11.6,4.9l-0.2-0.2v0.2c-4.3,0-8.5-1.6-11.6-4.9l-47-47
							c-2.6-2.6-3.7-5.1-3.7-6.9h-0.2v2.6h0.2c-0.2,2,1,4.3,3.7,6.9l47,46.8c3.3,3.3,7.5,4.9,11.6,4.9v-0.2l0.2,0.2
							c4.3,0,8.5-1.6,11.6-4.9l47-47c2.6-2.6,3.7-5.1,3.7-6.9h0.2v-2.6h-0.2C312.5,216.6,311.4,219,308.8,221.7z"/>
						<path class="st17" d="M250,223.9L250,223.9h0.2c17.1-0.2,31.1-14,31.1-31.3s-14-31.1-31.1-31.3l-0.2-0.4v0.4
							c-17.1,0-31.1,14-31.1,31.3C218.8,209.8,232.7,223.9,250,223.9z"/>
					</g>
				</g>
			</g>
		</g>
		
			<radialGradient id="SVGID_19_" cx="-750.3933" cy="681.1382" r="2161.062" gradientTransform="matrix(0.2559 0 0 0.2559 284.2441 -93.6883)" gradientUnits="userSpaceOnUse">
			<stop  offset="0" style="stop-color:#FFFFFF"/>
			<stop  offset="1" style="stop-color:#FFFFFF;stop-opacity:0"/>
		</radialGradient>
		<path class="st21" d="M427.7,452.5L427.7,452.5l-33.4-57.6c48.6-41.1,79.6-102.4,79.6-171C473.9,100.3,373.5,0,250,0
			S26.1,100.3,26.1,223.9c0,68.6,30.9,130.1,79.6,171.2l-33.4,57.6c-1,1.8-1.6,3.7-1.8,5.7L67.6,496c-0.2,1.4,0.6,2.6,1.8,3.5l0,0
			l0,0c1.2,0.8,2.6,0.6,3.9-0.2l31.3-21.2c1.6-1.2,3.1-2.6,4.1-4.3l0,0l31.5-54.5C172.6,437.6,210.1,448,250,448
			s77.3-10.6,109.9-28.9l31.5,54.5c1,1.8,2.4,3.3,4.1,4.3l31.3,21.4c1.2,0.8,2.6,0.8,3.9,0.2l0,0l0,0c1.2-0.8,1.8-2,1.8-3.5
			l-2.8-37.7C429.3,456.3,428.9,454.3,427.7,452.5z"/>
	</g>
	<rect x="0" class="st17" width="499.9" height="499.9"/>
</g>
</svg>
