<?xml version="1.0" encoding="utf-8"?>
<!-- Generator: Adobe Illustrator 21.0.2, SVG Export Plug-In . SVG Version: 6.00 Build 0)  -->
<svg version="1.1" id="Layer_1" xmlns="http://www.w3.org/2000/svg" xmlns:xlink="http://www.w3.org/1999/xlink" x="0px" y="0px"
	 viewBox="0 0 500 500" style="enable-background:new 0 0 500 500;" xml:space="preserve">
<style type="text/css">
	.st0{fill:#A4C639;stroke:#FFFFFF;stroke-width:14.4;}
	.st1{fill:#A4C639;stroke:#FFFFFF;stroke-width:7.2;}
	.st2{fill:#A4C639;}
	.st3{fill:#FFFFFF;stroke:#FFFFFF;stroke-width:7.2;}
</style>
<g>
	<g>
		<g id="b">
			<ellipse class="st0" cx="249.2" cy="160.6" rx="130.9" ry="120.9"/>
			<path class="st0" d="M149.9,130.4h198.5c17.5,0,31.7,14.2,31.7,31.7v198.5c0,17.5-14.2,31.7-31.7,31.7H149.9
				c-17.5,0-31.7-14.2-31.7-31.7V162C118.3,144.5,132.4,130.4,149.9,130.4z"/>
		</g>
	</g>
	<g>
		<g id="a">
			<path class="st1" d="M163.4,7.7L163.4,7.7c-4.5,2.5-6.1,8.2-3.6,12.7l50.9,91.9c2.5,4.5,8.2,6.1,12.7,3.6l0,0
				c4.5-2.5,6.1-8.2,3.6-12.7l-50.9-91.9C173.6,6.8,167.9,5.2,163.4,7.7z"/>
			<path id="c" class="st1" d="M420.4,160.6L420.4,160.6c-19.1,0-34.5,15.5-34.5,34.5v122.3c0,19.1,15.5,34.5,34.5,34.5l0,0
				c19.1,0,34.5-15.5,34.5-34.5V195.1C454.9,176,439.5,160.6,420.4,160.6z"/>
			<g transform="scale(-1,1)">
				<path id="c_1_" class="st1" d="M-301.9,300.1L-301.9,300.1c-19.1,0-34.5,15.5-34.5,34.5V457c0,19.1,15.5,34.5,34.5,34.5l0,0
					c19.1,0,34.5-15.5,34.5-34.5V334.7C-267.4,315.6-282.8,300.1-301.9,300.1z"/>
			</g>
		</g>
		<g id="a_1_">
			<path class="st1" d="M335,7.7L335,7.7c4.5,2.5,6.1,8.2,3.6,12.7l-50.9,91.9c-2.5,4.5-8.2,6.1-12.7,3.6l0,0
				c-4.5-2.5-6.1-8.2-3.6-12.7l50.9-91.9C324.8,6.8,330.5,5.2,335,7.7z"/>
			<path id="c_2_" class="st1" d="M78,160.6L78,160.6c19.1,0,34.5,15.5,34.5,34.5v122.3c0,19.1-15.5,34.5-34.5,34.5l0,0
				c-19.1,0-34.5-15.5-34.5-34.5V195.1C43.4,176,58.9,160.6,78,160.6z"/>
			<g>
				<path id="c_3_" class="st1" d="M200.3,300.1L200.3,300.1c19.1,0,34.5,15.5,34.5,34.5V457c0,19.1-15.5,34.5-34.5,34.5l0,0
					c-19.1,0-34.5-15.5-34.5-34.5V334.7C165.7,315.6,181.2,300.1,200.3,300.1z"/>
			</g>
		</g>
		<g id="b_1_">
			<ellipse class="st2" cx="249.2" cy="160.6" rx="130.9" ry="120.9"/>
			<path class="st2" d="M149.9,130.4h198.5c17.5,0,31.7,14.2,31.7,31.7v198.5c0,17.5-14.2,31.7-31.7,31.7H149.9
				c-17.5,0-31.7-14.2-31.7-31.7V162C118.3,144.5,132.4,130.4,149.9,130.4z"/>
		</g>
	</g>
	<g>
		<path class="st3" d="M112.5,165.6h273.4"/>
		<circle class="st3" cx="188.8" cy="101.6" r="5.8"/>
		<circle class="st3" cx="309.6" cy="101.6" r="5.8"/>
	</g>
</g>
</svg>
