<?xml version="1.0" encoding="utf-8"?>
<!-- Generator: Adobe Illustrator 21.0.2, SVG Export Plug-In . SVG Version: 6.00 Build 0)  -->
<svg version="1.1" id="Layer_1" xmlns="http://www.w3.org/2000/svg" xmlns:xlink="http://www.w3.org/1999/xlink" x="0px" y="0px"
	 viewBox="0 0 500 500" style="enable-background:new 0 0 500 500;" xml:space="preserve">
<style type="text/css">
	.st0{fill:#DD0031;}
	.st1{fill:#C3002F;}
	.st2{fill:#FFFFFF;}
</style>
<g>
	<polygon class="st0" points="249.4,3 249.4,3 249.4,3 20.4,84.7 55.3,387.5 249.4,495 249.4,495 249.4,495 443.5,387.5 478.5,84.7 
			"/>
	<polygon class="st1" points="249.4,3 249.4,57.6 249.4,57.4 249.4,306.6 249.4,306.6 249.4,495 249.4,495 443.5,387.5 478.5,84.7 	
		"/>
	<path class="st2" d="M249.4,57.4l-143.2,321l0,0h53.4l0,0l28.8-71.8H310l28.8,71.8l0,0h53.4l0,0L249.4,57.4L249.4,57.4L249.4,57.4
		L249.4,57.4L249.4,57.4z M291.3,262.3h-83.6l41.8-100.6L291.3,262.3z"/>
</g>
</svg>
