<svg id="svg2" xmlns="http://www.w3.org/2000/svg" xmlns:xlink="http://www.w3.org/1999/xlink" viewBox="0 0 500 500"><defs><style>.cls-1{fill:url(#linear-gradient);}.cls-2{fill:#fff;}</style><linearGradient id="linear-gradient" x1="309.2" y1="-328.45" x2="337.16" y2="-300" gradientTransform="matrix(15.62, 0, 0, -15.62, -4800, -4657.23)" gradientUnits="userSpaceOnUse"><stop offset="0" stop-color="#070135"/><stop offset="1" stop-color="#612d50"/></linearGradient></defs><title>TransferBid_Letterhead_02_MidaArtboard 1</title><g id="layer1"><rect id="rect3050" class="cls-1" x="2" y="1.99" width="495.96" height="498.01" rx="80.12" ry="80.12"/><g id="text3836"><path id="path3841" class="cls-2" d="M253.73,216.38q19,0,28.81-8.27t9.81-24.38q0-15.91-9.81-24.18-9.81-8.47-28.81-8.47H209.25v65.29h44.47m2.71,134.93q24.22,0,36.33-10.12,12.32-10.12,12.32-30.58,0-20-12.11-30-12.11-10.12-36.54-10.12H209.25v80.79h47.18m74.74-111q25.89,7.44,40.09,27.48T385.47,317q0,44.63-30.48,66.53t-92.7,21.9H128.87V97H249.55q64.93,0,94,19.42,29.23,19.42,29.23,62.19,0,22.52-10.65,38.43-10.65,15.7-30.9,23.35"/></g></g></svg>