<?xml version="1.0" encoding="utf-8"?>
<!-- Generator: Adobe Illustrator 21.0.2, SVG Export Plug-In . SVG Version: 6.00 Build 0)  -->
<svg version="1.1"
	 id="svg2" inkscape:version="0.91 r13725" sodipodi:docname="cordova-logo-by-gengns.svg" xmlns:cc="http://creativecommons.org/ns#" xmlns:dc="http://purl.org/dc/elements/1.1/" xmlns:inkscape="http://www.inkscape.org/namespaces/inkscape" xmlns:rdf="http://www.w3.org/1999/02/22-rdf-syntax-ns#" xmlns:sodipodi="http://sodipodi.sourceforge.net/DTD/sodipodi-0.dtd" xmlns:svg="http://www.w3.org/2000/svg"
	 xmlns="http://www.w3.org/2000/svg" xmlns:xlink="http://www.w3.org/1999/xlink" x="0px" y="0px" viewBox="0 0 500 500"
	 style="enable-background:new 0 0 500 500;" xml:space="preserve">
<style type="text/css">
	.st0{filter:url(#filter5181);}
	.st1{opacity:0.5686;}
	.st2{fill:#7F8082;}
	.st3{fill:url(#path3439_1_);stroke:#D6D6D6;stroke-linejoin:round;}
	.st4{fill:url(#path4771_1_);}
	.st5{fill:#293441;}
	.st6{fill:#2D3948;}
	.st7{fill:url(#path4761_1_);}
	.st8{fill:url(#path4794_1_);}
	.st9{fill:#2D3B48;}
	.st10{fill:url(#path4810_1_);stroke:#D6D6D6;stroke-linejoin:round;}
	.st11{opacity:0.449;fill:#363F49;enable-background:new    ;}
	.st12{opacity:0.3;fill:url(#path4832_1_);enable-background:new    ;}
	.st13{opacity:0.2;fill:url(#path4834_1_);enable-background:new    ;}
	.st14{opacity:0.8;filter:url(#filter4710);enable-background:new    ;}
	.st15{fill:#05F0FF;}
	.st16{opacity:0.9;filter:url(#filter4539);enable-background:new    ;}
	.st17{fill:#FFFFFF;}
	.st18{fill:none;stroke:#06EFFE;stroke-width:0.9177;stroke-linecap:round;}
	.st19{fill:#FEFFFF;}
	.st20{fill:none;stroke:#06EFFE;stroke-width:0.9544;stroke-linecap:round;}
	.st21{fill:none;stroke:#D6D6D6;stroke-linejoin:round;}
	.st22{opacity:0.343;fill:#FFFFFF;stroke:#FFFFFF;enable-background:new    ;}
</style>
<filter  height="1.7152145" id="filter5181" inkscape:collect="always" style="color-interpolation-filters:sRGB" width="1.2616597" x="-0.13082987" y="-0.35760725">
	<feGaussianBlur  id="feGaussianBlur5183" inkscape:collect="always" stdDeviation="19.20073"></feGaussianBlur>
</filter>
<filter  height="1.2218215" id="filter4710" inkscape:collect="always" style="color-interpolation-filters:sRGB" width="1.8299422" x="-0.41497112" y="-0.11091075">
	<feGaussianBlur  id="feGaussianBlur4712" inkscape:collect="always" stdDeviation="2.2926451"></feGaussianBlur>
</filter>
<filter  height="1.1074065" id="filter4539" inkscape:collect="always" style="color-interpolation-filters:sRGB" width="1.4018602" x="-0.2009301" y="-0.053703274">
	<feGaussianBlur  id="feGaussianBlur4541" inkscape:collect="always" stdDeviation="1.1101047"></feGaussianBlur>
</filter>
<sodipodi:namedview  bordercolor="#666666" borderopacity="1" gridtolerance="10" guidetolerance="10" id="namedview4" inkscape:bbox-nodes="true" inkscape:bbox-paths="true" inkscape:current-layer="text4203" inkscape:cx="-31.155626" inkscape:cy="-374.20704" inkscape:guide-bbox="true" inkscape:object-nodes="true" inkscape:object-paths="true" inkscape:pageopacity="0" inkscape:pageshadow="2" inkscape:snap-bbox="true" inkscape:snap-bbox-edge-midpoints="true" inkscape:snap-bbox-midpoints="true" inkscape:snap-global="false" inkscape:snap-intersection-paths="true" inkscape:snap-smooth-nodes="true" inkscape:window-height="1056" inkscape:window-maximized="1" inkscape:window-width="1855" inkscape:window-x="65" inkscape:window-y="24" inkscape:zoom="0.49997415" objecttolerance="10" pagecolor="#ffffff" showgrid="false" showguides="true">
	</sodipodi:namedview>
<g id="path5096" inkscape:connector-curvature="0" class="st0">
	<polygon class="st1" points="432.7,476.6 352.8,363.4 162.9,363.4 83.4,476.6 	"/>
</g>
<g id="g5122">
	<path id="path4824" inkscape:connector-curvature="0" sodipodi:nodetypes="cccc" class="st2" d="M398.6,380.4L369.1,442l-20.3-76.8
		L398.6,380.4z"/>
	<path id="path4822" inkscape:connector-curvature="0" sodipodi:nodetypes="cccc" class="st2" d="M126.9,380.4L147,442l20.3-76.8
		L126.9,380.4z"/>
	
		<linearGradient id="path3439_1_" gradientUnits="userSpaceOnUse" x1="462.8659" y1="71.1917" x2="58.4828" y2="331.7231" gradientTransform="matrix(1 0 0 -1 -14.8492 489.3934)">
		<stop  offset="0" style="stop-color:#ACACAC"/>
		<stop  offset="1" style="stop-color:#E9E9E9"/>
	</linearGradient>
	<path id="path3439" inkscape:connector-curvature="0" class="st3" d="M33.1,176.6L33.1,176.6L75,442h72l-5.9-61.7H178l4.7,61.7
		h150.8l4.7-61.7H375l-5.9,61.7h72.5L483,176.6l0,0L33.1,176.6L33.1,176.6z"/>
	
		<radialGradient id="path4771_1_" cx="353.9986" cy="835.1638" r="20.7559" gradientTransform="matrix(0.9231 -11.5077 5.8964 0.473 -5113.9194 4011.6841)" gradientUnits="userSpaceOnUse">
		<stop  offset="0" style="stop-color:#25303B"/>
		<stop  offset="1" style="stop-color:#25303B;stop-opacity:0"/>
	</radialGradient>
	<path id="path4771" inkscape:connector-curvature="0" sodipodi:nodetypes="ccccc" class="st4" d="M136,339.7l21.7-81.1l-1.5-163.9
		l-40.6,81.9L136,339.7z"/>
	<path id="path4776" inkscape:connector-curvature="0" sodipodi:nodetypes="ccccc" class="st5" d="M291.6,78.7h89.8L379.5,277h-94.8
		L291.6,78.7z"/>
	<path id="path4778" inkscape:connector-curvature="0" sodipodi:nodetypes="ccccc" class="st5" d="M226.6,78.8l-87.4,0.1l2.1,197.5
		h89L226.6,78.8z"/>
	<path id="path4735" inkscape:connector-curvature="0" sodipodi:nodetypes="ccccc" class="st6" d="M148.3,258.6L136,339.7h244.8
		l-14.5-80.6L148.3,258.6z"/>
	
		<linearGradient id="path4761_1_" gradientUnits="userSpaceOnUse" x1="404.8117" y1="158.9866" x2="384.9033" y2="395.4618" gradientTransform="matrix(1 0 0 -1 -14.8492 489.3934)">
		<stop  offset="0" style="stop-color:#24303A"/>
		<stop  offset="1" style="stop-color:#394958"/>
	</linearGradient>
	<path id="path4761" inkscape:connector-curvature="0" sodipodi:nodetypes="ccccc" class="st7" d="M380.8,339.7l-21.3-80.6l0.8-165
		l41.1,82.4L380.8,339.7z"/>
	
		<linearGradient id="path4794_1_" gradientUnits="userSpaceOnUse" x1="350.6275" y1="158.9797" x2="330.7191" y2="395.4549" gradientTransform="matrix(-1 0 0 -1 477.7384 489.3934)">
		<stop  offset="0" style="stop-color:#24303A"/>
		<stop  offset="1" style="stop-color:#394958"/>
	</linearGradient>
	<path id="path4794" inkscape:connector-curvature="0" sodipodi:nodetypes="ccccc" class="st8" d="M136.2,339.7l21.5-81.1
		l-1.5-163.9l-40.6,81.9L136.2,339.7z"/>
	<path id="path4739" inkscape:connector-curvature="0" sodipodi:nodetypes="ccccc" class="st9" d="M217.5,124.5l8.1,172.3h63
		l10.1-172.3L217.5,124.5z"/>
	
		<linearGradient id="path4810_1_" gradientUnits="userSpaceOnUse" x1="429.8279" y1="405.7151" x2="96.743" y2="372.3013" gradientTransform="matrix(1 0 0 -1 -14.8492 489.3934)">
		<stop  offset="0" style="stop-color:#E5E5E5"/>
		<stop  offset="1" style="stop-color:#FFFFFF"/>
	</linearGradient>
	<path id="path4810" inkscape:connector-curvature="0" sodipodi:nodetypes="ccccccccccccc" class="st10" d="M483,176.6L380.1,12
		H135.5L33.1,176.6h82.4L155.9,95h66.4l-4.9,29.5h81.2l-4.3-30.4h66.2l40.9,82.4H483z"/>
	<path id="path4826" inkscape:connector-curvature="0" sodipodi:nodetypes="ccccccc" class="st11" d="M294.3,94.1l66.7,0.1
		l40.4,82.4l-20.7,163.2l-155.2,0l80.2-163.2L294.3,94.1z"/>
	
		<linearGradient id="path4832_1_" gradientUnits="userSpaceOnUse" x1="210.6604" y1="323.4294" x2="210.6604" y2="160.2608" gradientTransform="matrix(1 0 0 -1 0 500)">
		<stop  offset="0" style="stop-color:#FFFFFF"/>
		<stop  offset="0.5" style="stop-color:#FFFFFF;stop-opacity:0.5317"/>
		<stop  offset="1" style="stop-color:#FFFFFF;stop-opacity:0"/>
	</linearGradient>
	<path id="path4832" inkscape:connector-curvature="0" sodipodi:nodetypes="ccccc" class="st12" d="M305.8,176.6l-80.2,163.2
		l-89.5,0l-20.5-163.2H305.8z"/>
	
		<linearGradient id="path4834_1_" gradientUnits="userSpaceOnUse" x1="210.6604" y1="323.4294" x2="210.6604" y2="404.9763" gradientTransform="matrix(1 0 0 -1 0 500)">
		<stop  offset="0" style="stop-color:#FFFFFF"/>
		<stop  offset="1" style="stop-color:#FFFFFF;stop-opacity:0"/>
	</linearGradient>
	<path id="path4834" inkscape:connector-curvature="0" sodipodi:nodetypes="ccccccc" class="st13" d="M155.9,95h66.4l-4.9,29.5h81.2
		l7.2,52.1H115.5L155.9,95z"/>
	<g id="g4749" transform="translate(-14.849242,-10.606602)">
		<g id="g4722" transform="matrix(0.89997913,0,0,0.97774567,-1.4952307,573.7235)">
			<g id="ellipse3463" class="st14">
				<ellipse class="st15" cx="379.1" cy="-324.7" rx="11.4" ry="40.5"/>
			</g>
			<g id="ellipse4390" class="st16">
				<ellipse class="st17" cx="379.1" cy="-324" rx="8.9" ry="35.9"/>
				<ellipse class="st18" cx="379.1" cy="-324" rx="8.9" ry="35.9"/>
			</g>
			<g id="ellipse4720" class="st16">
				<ellipse class="st19" cx="379.1" cy="-323.9" rx="8.9" ry="33.2"/>
				<ellipse class="st20" cx="379.1" cy="-323.9" rx="8.9" ry="33.2"/>
			</g>
		</g>
		<g id="g4727" transform="matrix(0.89997913,0,0,0.97774567,-102.68784,578.19963)">
			<g id="ellipse4729" class="st14">
				<ellipse class="st15" cx="347.9" cy="-323.4" rx="11.4" ry="40.5"/>
			</g>
			<g id="ellipse4731" class="st16">
				<ellipse class="st17" cx="347.9" cy="-322.8" rx="8.9" ry="35.9"/>
				<ellipse class="st18" cx="347.9" cy="-322.8" rx="8.9" ry="35.9"/>
			</g>
			<g id="ellipse4733" class="st16">
				<ellipse class="st19" cx="347.9" cy="-322.7" rx="8.9" ry="33.2"/>
				<ellipse class="st20" cx="347.9" cy="-322.7" rx="8.9" ry="33.2"/>
			</g>
		</g>
	</g>
	<path id="path4856" inkscape:connector-curvature="0" sodipodi:nodetypes="ccccccccccc" class="st21" d="M155.9,95h66.4l-4.9,29.5
		h81.2l-4.3-30.4l66.7,0.1l40.4,82.4l-20.7,163.2l-244.8,0l-20.5-163.2L155.9,95z"/>
	<path id="path4858" inkscape:connector-curvature="0" class="st22" d="M400.8,176.6H115.3"/>
</g>
</svg>
