<?xml version="1.0" encoding="utf-8"?>
<!-- Generator: Adobe Illustrator 21.0.2, SVG Export Plug-In . SVG Version: 6.00 Build 0)  -->
<svg version="1.1"
	 id="svg3476" inkscape:version="0.91 r13725" sodipodi:docname="CSS3.svg" xmlns:cc="http://creativecommons.org/ns#" xmlns:dc="http://purl.org/dc/elements/1.1/" xmlns:inkscape="http://www.inkscape.org/namespaces/inkscape" xmlns:rdf="http://www.w3.org/1999/02/22-rdf-syntax-ns#" xmlns:sodipodi="http://sodipodi.sourceforge.net/DTD/sodipodi-0.dtd" xmlns:svg="http://www.w3.org/2000/svg"
	 xmlns="http://www.w3.org/2000/svg" xmlns:xlink="http://www.w3.org/1999/xlink" x="0px" y="0px" viewBox="0 0 500 500"
	 style="enable-background:new 0 0 500 500;" xml:space="preserve">
<style type="text/css">
	.st0{fill:#264DE4;}
	.st1{fill:#2965F1;}
	.st2{fill:#EBEBEB;}
	.st3{fill:#FFFFFF;}
</style>
<sodipodi:namedview  bordercolor="#666666" borderopacity="1.0" fit-margin-bottom="0" fit-margin-left="0" fit-margin-right="0" fit-margin-top="0" id="base" inkscape:current-layer="layer1" inkscape:cx="181.367" inkscape:cy="256" inkscape:document-units="px" inkscape:pageopacity="0.0" inkscape:pageshadow="2" inkscape:window-height="704" inkscape:window-maximized="1" inkscape:window-width="1366" inkscape:window-x="0" inkscape:window-y="27" inkscape:zoom="0.35" pagecolor="#ffffff" showgrid="false">
	</sodipodi:namedview>
<g id="layer1" transform="translate(-193.633,-276.3622)" inkscape:groupmode="layer" inkscape:label="Calque 1">
	<g id="g3013" transform="translate(119,276.3622)">
		<polygon id="polygon2989" class="st0" points="502.5,98.3 470.2,459.8 325.2,500 180.5,459.8 148.3,98.3 		"/>
		<polygon id="polygon2991" class="st1" points="442.6,436.8 470.2,127.8 325.4,127.8 325.4,469.3 		"/>
		<polygon id="polygon2993" class="st2" points="222.2,261.9 226.2,306.3 325.4,306.3 325.4,261.9 		"/>
		<polygon id="polygon2995" class="st2" points="325.4,172.2 325.2,172.2 214.2,172.2 218.2,216.5 325.4,216.5 		"/>
		<polygon id="polygon2997" class="st2" points="325.4,423.2 325.4,377.1 325.2,377.2 275.8,363.8 272.7,328.5 248.7,328.5 
			228.1,328.5 234.4,398.1 325.2,423.3 		"/>
		<path id="path2999" inkscape:connector-curvature="0" d="M231.6,0h53.7v22.5h-31.3v22.5h31.3v22.5h-53.7V0z"/>
		<path id="path3001" inkscape:connector-curvature="0" d="M296.1,0h53.7v19.5h-31.2v3.9h31.2v44.9h-53.7V47.9h31.2v-3.9h-31.2V0z"
			/>
		<path id="path3003" inkscape:connector-curvature="0" d="M360.6,0h53.7v19.5H383v3.9h31.2v44.9h-53.7V47.9h31.2v-3.9h-31.2V0z"/>
		<polygon id="polygon3005" class="st3" points="379.8,306.3 374.7,363.8 325.2,377.1 325.2,423.3 416.2,398.1 416.8,390.6 
			427.2,273.8 428.3,261.9 436.3,172.2 325.2,172.2 325.2,216.5 387.7,216.5 383.7,261.9 325.2,261.9 325.2,306.3 		"/>
	</g>
</g>
</svg>
