<?xml version="1.0" encoding="utf-8"?>
<!-- Generator: Adobe Illustrator 21.0.2, SVG Export Plug-In . SVG Version: 6.00 Build 0)  -->
<svg version="1.1" id="Layer_1" xmlns="http://www.w3.org/2000/svg" xmlns:xlink="http://www.w3.org/1999/xlink" x="0px" y="0px"
	 viewBox="0 0 500 500" style="enable-background:new 0 0 500 500;" xml:space="preserve">
<style type="text/css">
	.st0{fill:#0080FF;}
</style>
<g id="XMLID_229_">
	<g id="XMLID_690_">
		<g id="XMLID_691_">
			<g>
				<g id="XMLID_44_">
					<g id="XMLID_48_">
						<path id="XMLID_49_" class="st0" d="M250,315.7v-48.5c51.4,0,91.2-50.9,71.5-105c-7.2-19.9-23.3-35.9-43.3-43.1
							c-54.1-19.6-105,20.1-105,71.5l0,0h-48.4c0-81.9,79.2-145.7,165-118.9c37.5,11.8,67.4,41.6,79,79
							C395.7,236.5,331.9,315.7,250,315.7z"/>
					</g>
					<polygon id="XMLID_47_" class="st0" points="250.1,267.4 201.8,267.4 201.8,219.1 201.8,219.1 250.1,219.1 250.1,219.1 					
						"/>
					<polygon id="XMLID_46_" class="st0" points="201.8,304.5 164.7,304.5 164.7,304.5 164.7,267.4 201.8,267.4 					"/>
					<path id="XMLID_45_" class="st0" d="M164.7,267.4h-31.1l0,0v-31.1l0,0h31.1l0,0V267.4z"/>
				</g>
			</g>
		</g>
	</g>
	<g id="XMLID_234_">
		<path id="XMLID_677_" class="st0" d="M43.1,364.8c-6.2-4.4-14.2-6.5-23.3-6.5H0v63.1h20c9.1,0,17-2.3,23.3-7
			c3.4-2.4,6.1-5.8,8.1-10.1c1.8-4.3,2.8-9.4,2.8-14.9s-1-10.5-2.8-14.8C49.4,370.4,46.7,367,43.1,364.8z M11.6,368.9h6.2
			c7,0,12.6,1.4,17,4.1c4.8,3,7.2,8.5,7.2,16.5c0,8.2-2.4,14-7.2,17.2l0,0c-4.1,2.7-9.8,4.1-16.9,4.1h-6.4V368.9z"/>
		<path id="XMLID_676_" class="st0" d="M68,357.4c-2,0-3.5,0.7-5,2c-1.3,1.3-2,2.8-2,4.8c0,2,0.7,3.5,2,5c1.3,1.3,3,2,5,2
			c1.8,0,3.5-0.7,5-2c1.3-1.3,2-3,2-5c0-2-0.7-3.5-2-4.8C71.5,358.1,69.8,357.4,68,357.4z"/>
		<rect id="XMLID_675_" x="62.3" y="376.8" class="st0" width="11.2" height="44.6"/>
		<path id="XMLID_670_" class="st0" d="M114.2,380.5c-3.4-3-7.1-4.8-11.2-4.8c-6.2,0-11.4,2.1-15.3,6.4c-4,4.1-6.1,9.5-6.1,16
			c0,6.2,2,11.6,6,15.9c4,4.1,9.2,6.2,15.3,6.2c4.3,0,8.1-1.1,11.1-3.5v1c0,3.7-1,6.5-3,8.5c-2,2-4.7,3-8.1,3c-5.1,0-8.4-2-12.3-7.4
			l-7.7,7.4l0.1,0.3c1.7,2.3,4.1,4.5,7.5,6.7c3.3,2.1,7.5,3.3,12.5,3.3c6.7,0,12.1-2,16-6.1s6-9.5,6-16.2v-40.4h-11.1v3.8H114.2z
			 M111.2,406.9c-2,2.3-4.5,3.3-7.7,3.3c-3.3,0-5.7-1.1-7.7-3.3c-2-2.3-2.8-5.1-2.8-8.7c0-3.7,1-6.5,2.8-8.8
			c1.8-2.3,4.5-3.3,7.7-3.3c3.3,0,5.7,1.1,7.7,3.3c2,2.3,3,5.2,3,8.8C114.2,401.8,113.2,404.6,111.2,406.9z"/>
		<rect id="XMLID_668_" x="134.8" y="376.8" class="st0" width="11.2" height="44.6"/>
		<path id="XMLID_660_" class="st0" d="M140.5,357.4c-2,0-3.5,0.7-5,2c-1.3,1.3-2,2.8-2,4.8c0,2,0.7,3.5,2,5c1.3,1.3,3,2,5,2
			c1.8,0,3.5-0.7,5-2c1.3-1.3,2-3,2-5c0-2-0.7-3.5-2-4.8C144,358.1,142.5,357.4,140.5,357.4z"/>
		<path id="XMLID_652_" class="st0" d="M170.5,364.8h-11.1v12.1h-6.4V387h6.4v18.4c0,5.8,1.1,9.9,3.4,12.3c2.3,2.4,6.4,3.5,12.1,3.5
			c1.8,0,3.7,0,5.4-0.1h0.6V411l-3.8,0.1c-2.7,0-4.4-0.4-5.2-1.4c-0.9-1-1.3-3-1.3-6v-16.9H181v-10.2h-10.5V364.8z"/>
		<rect id="XMLID_642_" x="233.5" y="358.1" class="st0" width="11.2" height="63.3"/>
		<path id="XMLID_448_" class="st0" d="M358,405.5c-2,2.3-4.1,4.3-5.7,5.2l0,0c-1.6,1-3.5,1.6-5.8,1.6c-3.3,0-6-1.1-8.1-3.7
			c-2.1-2.4-3.3-5.7-3.3-9.4c0-3.8,1.1-7,3.3-9.4c2.1-2.4,4.8-3.7,8.1-3.7c3.5,0,7.4,2.3,10.6,6.1l7.4-7.1l0,0
			c-4.8-6.2-10.9-9.2-18.3-9.2c-6.1,0-11.5,2.3-15.9,6.7c-4.4,4.4-6.5,9.9-6.5,16.6s2.3,12.2,6.5,16.6c4.4,4.4,9.6,6.7,15.9,6.7
			c8.1,0,14.6-3.5,19.2-9.9L358,405.5z"/>
		<path id="XMLID_445_" class="st0" d="M404.1,383.1c-1.6-2.3-3.7-4-6.4-5.2c-2.7-1.3-5.8-2-9.2-2c-6.2,0-11.4,2.3-15.2,6.8
			c-3.7,4.5-5.7,10.1-5.7,16.7c0,6.8,2.1,12.3,6.1,16.6c4.1,4.3,9.5,6.4,16.2,6.4c7.5,0,13.8-3.1,18.4-9.1l0.3-0.3l-7.4-7.1l0,0
			c-0.7,0.9-1.7,1.7-2.6,2.6c-1.1,1-2.1,1.8-3.3,2.4c-1.7,0.9-3.5,1.3-5.7,1.3c-3.1,0-5.7-0.9-7.7-2.7c-1.8-1.7-3-4-3.3-6.8h29.7
			l0.1-4.1c0-2.8-0.4-5.7-1.1-8.2C406.8,387.8,405.6,385.3,404.1,383.1z M379.5,393.6c0.6-2.1,1.6-4,3-5.2c1.6-1.6,3.5-2.3,5.8-2.3
			c2.7,0,4.8,0.7,6.2,2.3c1.3,1.4,2.1,3.1,2.3,5.2H379.5z"/>
		<path id="XMLID_442_" class="st0" d="M447.1,380.2L447.1,380.2c-3.4-2.8-8.1-4.4-13.9-4.4c-3.7,0-7.2,0.9-10.4,2.4
			c-3,1.4-5.8,4-7.7,7.1l0.1,0.1l7.2,6.8c3-4.7,6.2-6.4,10.6-6.4c2.4,0,4.3,0.6,5.8,1.8c1.4,1.3,2.3,2.8,2.3,4.8v2.1
			c-2.8-0.9-5.5-1.3-8.2-1.3c-5.5,0-10.1,1.3-13.5,3.8c-3.4,2.6-5.1,6.4-5.1,11.2c0,4.3,1.4,7.5,4.4,10.1c3,2.4,6.5,3.7,10.8,3.7
			s8.2-1.7,11.9-4.7v3.7h11.1v-28.7C452.2,387.3,450.5,383.1,447.1,380.2z M427.2,404.4c1.3-0.9,3.1-1.3,5.4-1.3
			c2.7,0,5.5,0.6,8.5,1.6v4.4c-2.4,2.3-5.7,3.4-9.6,3.4c-2,0-3.4-0.4-4.5-1.3c-1-0.9-1.6-1.8-1.6-3.3
			C425.4,406.3,425.9,405.2,427.2,404.4z"/>
		<path id="XMLID_393_" class="st0" d="M495.3,381.1c-3.1-3.5-7.5-5.2-13.1-5.2c-4.4,0-8.1,1.3-10.8,3.8V377h-10.9v44.4h11.2v-24.5
			c0-3.4,0.9-6.1,2.4-7.9c1.6-1.8,3.7-2.8,6.7-2.8c2.6,0,4.4,0.9,5.8,2.6c1.4,1.7,2.1,4.1,2.1,7v25.8H500v-25.8
			C500,389.5,498.4,384.5,495.3,381.1z"/>
		<path id="XMLID_320_" class="st0" d="M219.5,380.2L219.5,380.2c-3.4-2.8-8.1-4.4-13.9-4.4c-3.7,0-7.2,0.9-10.4,2.4
			c-3,1.4-5.8,4-7.7,7.1l0.1,0.1l7.2,6.8c3-4.7,6.2-6.4,10.6-6.4c2.4,0,4.3,0.6,5.8,1.8c1.4,1.3,2.3,2.8,2.3,4.8v2.1
			c-2.8-0.9-5.5-1.3-8.2-1.3c-5.5,0-10.1,1.3-13.5,3.8c-3.4,2.6-5.1,6.4-5.1,11.2c0,4.3,1.4,7.5,4.4,10.1c3,2.4,6.5,3.7,10.8,3.7
			s8.2-1.7,11.9-4.7v3.7H225v-28.7C224.6,387.3,222.9,383.1,219.5,380.2z M199.6,404.4c1.3-0.9,3.1-1.3,5.4-1.3
			c2.7,0,5.5,0.6,8.5,1.6v4.4c-2.4,2.3-5.7,3.4-9.6,3.4c-2,0-3.4-0.4-4.5-1.3c-1-0.9-1.6-1.8-1.6-3.3
			C197.8,406.3,198.4,405.2,199.6,404.4z"/>
		<path id="XMLID_235_" class="st0" d="M285.5,422.4c-18,0-32.6-14.6-32.6-32.6s14.6-32.6,32.6-32.6s32.6,14.6,32.6,32.6
			S303.5,422.4,285.5,422.4z M285.5,368.6c-11.6,0-21.1,9.5-21.1,21.1s9.5,21.1,21.1,21.1s21.1-9.5,21.1-21.1
			S297.1,368.6,285.5,368.6z"/>
	</g>
</g>
</svg>
