<?xml version="1.0" encoding="utf-8"?>
<!-- Generator: Adobe Illustrator 21.0.2, SVG Export Plug-In . SVG Version: 6.00 Build 0)  -->
<svg version="1.1" id="Capa_1" xmlns="http://www.w3.org/2000/svg" xmlns:xlink="http://www.w3.org/1999/xlink" x="0px" y="0px"
	 viewBox="0 0 500 500" style="enable-background:new 0 0 500 500;" xml:space="preserve">
<g>
	<path d="M466.5,130.6c-22.4-38.3-52.7-68.6-91-91C337.2,17.3,295.4,6.1,250,6.1c-45.4,0-87.2,11.2-125.5,33.5
		c-38.3,22.4-68.6,52.7-91,91C11.2,168.9,0,210.8,0,256.1c0,54.5,15.9,103.5,47.7,147c31.8,43.5,72.9,73.6,123.2,90.3
		c5.9,1.1,10.2,0.3,13-2.3c2.8-2.6,4.2-5.9,4.2-9.8c0-0.7-0.1-6.5-0.2-17.6c-0.1-11.1-0.2-20.7-0.2-29l-7.5,1.3
		c-4.8,0.9-10.8,1.2-18.1,1.1c-7.3-0.1-14.8-0.9-22.6-2.3c-7.8-1.4-15.1-4.7-21.8-9.8c-6.7-5.1-11.5-11.8-14.3-20l-3.3-7.5
		c-2.2-5-5.6-10.5-10.3-16.6c-4.7-6.1-9.4-10.2-14.2-12.4l-2.3-1.6c-1.5-1.1-2.9-2.4-4.2-3.9c-1.3-1.5-2.3-3-2.9-4.6
		c-0.7-1.5-0.1-2.8,1.6-3.7c1.7-1,4.9-1.5,9.4-1.5l6.5,1c4.3,0.9,9.7,3.5,16.1,7.8c6.4,4.3,11.7,10,15.8,16.9
		c5,8.9,11,15.7,18.1,20.3c7.1,4.7,14.2,7,21.3,7c7.2,0,13.3-0.5,18.6-1.6c5.2-1.1,10.1-2.7,14.6-4.9c2-14.5,7.3-25.7,15.9-33.5
		c-12.4-1.3-23.5-3.3-33.4-5.9c-9.9-2.6-20.1-6.8-30.6-12.7c-10.5-5.9-19.3-13.1-26.2-21.8c-6.9-8.7-12.6-20.1-17.1-34.2
		c-4.4-14.1-6.7-30.4-6.7-48.8c0-26.3,8.6-48.6,25.7-67.1c-8-19.7-7.3-41.9,2.3-66.4c6.3-2,15.6-0.5,28,4.4
		c12.4,4.9,21.4,9.1,27.2,12.5c5.8,3.5,10.4,6.4,13.8,8.8c20.2-5.6,41-8.5,62.5-8.5s42.3,2.8,62.5,8.5l12.4-7.8
		c8.5-5.2,18.4-10,29.9-14.3c11.5-4.3,20.3-5.5,26.4-3.6c9.8,24.5,10.6,46.7,2.6,66.4c17.1,18.4,25.7,40.8,25.7,67.1
		c0,18.4-2.2,34.8-6.7,49c-4.4,14.2-10.2,25.6-17.2,34.2c-7.1,8.6-15.8,15.8-26.4,21.6c-10.5,5.9-20.7,10.1-30.6,12.7
		c-9.9,2.6-21,4.6-33.4,5.9c11.3,9.8,16.9,25.2,16.9,46.2v68.7c0,3.9,1.4,7.2,4.1,9.8c2.7,2.6,7,3.4,12.9,2.3
		c50.4-16.7,91.4-46.8,123.2-90.3c31.8-43.5,47.7-92.5,47.7-147C500,210.8,488.8,168.9,466.5,130.6z"/>
</g>
</svg>
