<?xml version="1.0" encoding="utf-8"?>
<!-- Generator: Adobe Illustrator 21.0.2, SVG Export Plug-In . SVG Version: 6.00 Build 0)  -->
<svg version="1.1" id="Layer_1" xmlns="http://www.w3.org/2000/svg" xmlns:xlink="http://www.w3.org/1999/xlink" x="0px" y="0px"
	 viewBox="0 0 500 500" style="enable-background:new 0 0 500 500;" xml:space="preserve">
<style type="text/css">
	.st0{fill:#E44D26;}
	.st1{fill:#F16529;}
	.st2{fill:#EBEBEB;}
	.st3{fill:#FFFFFF;}
</style>
<title>HTML5 Logo</title>
<polygon class="st0" points="108.9,457.9 77.1,101.8 426,101.8 394.2,457.8 251.4,497.4 "/>
<polygon class="st1" points="251.6,467.2 367,435.1 394.2,130.9 251.6,130.9 "/>
<polygon class="st2" points="251.6,263 193.8,263 189.8,218.2 251.6,218.2 251.6,174.6 251.4,174.6 142.1,174.6 143.1,186.3 
	153.8,306.6 251.6,306.6 "/>
<polygon class="st2" points="251.6,376.4 251.4,376.4 202.7,363.3 199.6,328.5 176,328.5 155.8,328.5 161.9,397 251.4,421.9 
	251.6,421.8 "/>
<path d="M109.6,5h22.2v21.9h20.3V5h22.2v66.4h-22.2V49.2h-20.3v22.2h-22.2L109.6,5L109.6,5z"/>
<path d="M203.5,27h-19.5V5h61.3v22h-19.5v44.4h-22.2L203.5,27L203.5,27z"/>
<path d="M254.9,5h23.1l14.2,23.3L306.5,5h23.2v66.4h-22.1V38.5l-15.3,23.6h-0.4l-15.3-23.6v32.9h-21.7V5z"/>
<path d="M340.7,5h22.2v44.5h31.2v21.9h-53.4V5z"/>
<polygon class="st3" points="251.4,263 251.4,306.6 305.2,306.6 300.1,363.3 251.4,376.4 251.4,421.9 341,397 341.6,389.7 
	351.9,274.7 352.9,263 341.2,263 "/>
<polygon class="st3" points="251.4,174.6 251.4,201.7 251.4,218.1 251.4,218.2 356.8,218.2 356.8,218.2 356.9,218.2 357.8,208.4 
	359.8,186.3 360.8,174.6 "/>
</svg>
