<?xml version="1.0" encoding="utf-8"?>
<!-- Generator: Adobe Illustrator 21.0.2, SVG Export Plug-In . SVG Version: 6.00 Build 0)  -->
<svg version="1.1" id="Layer_1" xmlns="http://www.w3.org/2000/svg" xmlns:xlink="http://www.w3.org/1999/xlink" x="0px" y="0px"
	 viewBox="0 0 500 500" style="enable-background:new 0 0 500 500;" xml:space="preserve">
<style type="text/css">
	.st0{fill:url(#SVGID_1_);}
	.st1{fill:#F37021;}
	.st2{fill:#FF7F18;}
</style>
<radialGradient id="SVGID_1_" cx="203.2493" cy="325.6647" r="298.357" gradientTransform="matrix(1 0 0 -1 0 502)" gradientUnits="userSpaceOnUse">
	<stop  offset="0" style="stop-color:#1C0A00;stop-opacity:0.85"/>
	<stop  offset="0.767" style="stop-color:#1C0A00"/>
</radialGradient>
<path class="st0" d="M20.8,28.1h457.6v445.1H20.8V28.1z"/>
<path class="st1" d="M0,7.2V494h499.2V7.2H0z M20.8,28.1h457.6v445.1H20.8V28.1z"/>
<path class="st2" d="M173.2,282.9l-16.5,62.4c-0.3,1.7-1,2.1-3.1,2.1h-30.6c-2.1,0-2.4-0.7-2.1-3.1l59-206.9c1-3.8,1.7-7,2.1-17.3
	c0-1.4,0.7-2.1,1.7-2.1h43.6c1.4,0,2.1,0.3,2.4,2.1L296,344.6c0.3,1.7,0,2.7-1.7,2.7H260c-1.7,0-2.7-0.4-3.1-1.8l-17.2-62.7
	L173.2,282.9L173.2,282.9z M231.2,249.1c-5.8-23-19.6-73.4-24.7-97.8h-0.3c-4.5,24.4-15.4,65.5-24,97.8H231.2z M324.8,133.5
	c0-13.4,9.3-21.3,21.3-21.3c12.7,0,21.3,8.6,21.3,21.3c0,13.7-8.9,21.3-21.6,21.3C333.4,154.7,324.8,147.2,324.8,133.5L324.8,133.5z
	 M327.1,180.7c0-1.7,0.7-2.4,2.4-2.4h32.6c1.7,0,2.4,0.7,2.4,2.4v164.2c0,1.7-0.3,2.4-2.4,2.4h-32.3c-2.1,0-2.7-1-2.7-2.7V180.7z"/>
</svg>
