<?xml version="1.0" encoding="utf-8"?>
<!-- Generator: Adobe Illustrator 21.0.2, SVG Export Plug-In . SVG Version: 6.00 Build 0)  -->
<svg version="1.1" id="Layer_1" xmlns="http://www.w3.org/2000/svg" xmlns:xlink="http://www.w3.org/1999/xlink" x="0px" y="0px"
	 viewBox="0 0 500 500" style="enable-background:new 0 0 500 500;" xml:space="preserve">
<style type="text/css">
	.st0{fill:#4E8EF7;}
</style>
<g>
	<rect x="24.4" y="373.5" class="st0" width="5.9" height="110.9"/>
	<path class="st0" d="M113.5,370.7c-33.3,0-58.4,25.1-58.4,58.2c0,33.3,25.1,58.2,58.4,58.2c33.3,0,58.4-24.9,58.4-58.2
		C171.9,395.9,146.8,370.7,113.5,370.7z M113.5,481.7c-29.9,0-52.5-22.6-52.5-52.7c0-30.1,22.6-52.7,52.5-52.7
		c29.9,0,52.5,22.6,52.5,52.7C166.1,459.1,143.5,481.7,113.5,481.7z"/>
	<path class="st0" d="M282.7,381.8c-12.6-10.3-27.6-11.1-35.4-11.1c-17.6,0-37,8.2-43.9,24.1h-0.4v-21.3h-5.9v110.9h5.9v-63.8
		c0-27.8,17.2-44.4,45-44.4c16.7,0,25.7,5.4,31.4,10.5c8.4,7.5,13.6,19.9,13.6,39.1v58.6h5.9v-58.6
		C298.8,405.9,293.5,391,282.7,381.8z"/>
	<rect x="331.2" y="373.5" class="st0" width="5.9" height="110.9"/>
	<path class="st0" d="M420.4,481.7c-28.3,0-52.5-21.4-52.5-52.7c0-15.1,6.3-29.7,15.3-37.9c11.5-10.3,21.8-14.9,37.5-14.9
		c21.8,0,41,12.1,48.6,33.3h6.5c-8.8-26.2-32.6-38.7-55.3-38.7c-33.7,0-58.4,25.5-58.4,58.4c0,34.5,26.2,58,58.4,58
		c26.4,0,47.3-15.1,55-37.7h-6.5C463.5,466,445.5,481.7,420.4,481.7z"/>
	<circle class="st0" cx="27.3" cy="339.1" r="6.3"/>
	<circle class="st0" cx="334.1" cy="339.1" r="6.3"/>
	<circle class="st0" cx="251.1" cy="154.9" r="57.9"/>
	<path class="st0" d="M369.2,56.7c0-11-8.9-19.9-19.9-19.9c-5,0-9.5,1.8-13,4.9c-23.7-17.9-53.2-28.5-85.2-28.5
		c-78.1,0-141.7,63.6-141.7,141.7c0,78.1,63.6,141.7,141.7,141.7s141.7-63.6,141.7-141.7c0-31.9-10.6-61.4-28.5-85.2
		C367.3,66.3,369.2,61.7,369.2,56.7z M251.1,291.9c-75.5,0-137-61.4-137-137s61.4-137,137-137c30.7,0,59.1,10.2,81.9,27.3
		c-2.3,3.2-3.7,7.2-3.7,11.5c0,11,8.9,19.9,19.9,19.9c4.3,0,8.2-1.4,11.5-3.7c17.1,22.9,27.3,51.2,27.3,82
		C388,230.4,326.6,291.9,251.1,291.9z"/>
</g>
</svg>
