<?xml version="1.0" encoding="utf-8"?>
<!-- Generator: Adobe Illustrator 21.0.2, SVG Export Plug-In . SVG Version: 6.00 Build 0)  -->
<svg version="1.1" id="Layer_1" xmlns="http://www.w3.org/2000/svg" xmlns:xlink="http://www.w3.org/1999/xlink" x="0px" y="0px"
	 viewBox="0 0 500 500" style="enable-background:new 0 0 500 500;" xml:space="preserve">
<g id="XMLID_7_">
	<path id="XMLID_8_" d="M246.8,95.7c-22.5,15.8-48,33.8-61.7,63.4c-23.7,51.8,48.6,108.3,51.7,110.6c0.7,0.6,1.6,0.8,2.4,0.8
		c0.9,0,1.8-0.3,2.6-0.9c1.4-1.2,1.8-3.2,1-4.9c-0.3-0.5-26.2-50.9-25.3-87.1c0.3-12.6,18-26.9,36.6-42
		c17.1-13.9,36.5-29.6,47.8-47.9c24.9-40.4-2.8-80.2-3.1-80.6c-1.1-1.5-3.1-2.1-4.9-1.3c-1.7,0.8-2.7,2.6-2.3,4.5
		c0.1,0.3,5.4,26.6-9.5,53.6C276.1,75.2,262.5,84.7,246.8,95.7z"/>
	<path id="XMLID_9_" d="M341.7,113.6c1.6-1.2,2.1-3.4,1.1-5.1c-1-1.7-3.1-2.5-4.9-1.8c-3.8,1.5-93.6,36.1-93.6,77.9
		c0,28.8,12.3,44.1,21.3,55.2c3.5,4.4,6.6,8.1,7.6,11.3c2.8,9.3-3.9,26-6.7,31.7c-0.8,1.6-0.4,3.6,1,4.8c0.7,0.6,1.7,1,2.6,1
		c0.8,0,1.6-0.2,2.3-0.7c1.5-1.1,37.7-26.7,31.2-57.5c-2.4-11.7-8.2-20.3-13.3-27.8c-7.9-11.7-13.6-20.2-4.9-35.8
		C295.4,148.5,341.2,113.9,341.7,113.6z"/>
	<path id="XMLID_10_" d="M107.9,289.2c-1.5,4.6-0.8,9.2,2.1,13.2c9.7,13.5,44.2,21,97.1,21c0,0,0,0,0,0c7.2,0,14.7-0.1,22.5-0.4
		c84.5-3,115.9-29.4,117.2-30.5c1.4-1.2,1.8-3.3,0.9-4.9c-0.9-1.6-2.8-2.5-4.6-2c-29.8,8.1-85.4,11-123.9,11
		c-43.1,0-65.1-3.1-70.5-5.4c2.8-3.8,19.8-10.6,40.9-14.7c2-0.4,3.4-2.3,3.2-4.3c-0.2-2-1.9-3.6-4-3.6
		C176.4,268.6,114.4,269.6,107.9,289.2z"/>
	<path id="XMLID_11_" d="M390.8,262c-17.4,0-34,8.7-34.7,9.1c-1.6,0.9-2.4,2.7-2,4.5c0.4,1.8,2,3,3.9,3c0.4,0,37.2,0.3,40.5,21.3
		c3,18.1-34.8,47.6-49.7,57.4c-1.6,1.1-2.2,3.1-1.5,4.9c0.6,1.5,2.1,2.4,3.7,2.4c0.3,0,0.6,0,0.8-0.1c3.5-0.8,86-18.9,77.3-66.9
		C423.9,268.2,405.4,262,390.8,262z"/>
	<path id="XMLID_12_" d="M334.2,351.5c0.3-1.5-0.4-3.1-1.6-4l-19.8-13.9c-1-0.7-2.2-0.9-3.3-0.6c-0.2,0.1-20.9,5.5-50.9,8.8
		c-11.9,1.3-25.3,2-38.6,2c-30,0-49.6-3.5-52.5-6.1c-0.4-0.7-0.3-1.1-0.2-1.2c0.5-1.4,3.3-3.2,5.1-3.8c2-0.7,3-2.9,2.4-4.9
		c-0.6-2-2.7-3.2-4.8-2.7c-19.8,4.8-29.5,11.5-28.8,19.9c1.3,14.9,35.8,22.6,65,24.6c4.2,0.3,8.7,0.4,13.5,0.4c0,0,0,0,0,0
		c48.6,0,110.9-15.2,111.5-15.4C332.8,354.3,334,353,334.2,351.5z"/>
	<path id="XMLID_13_" d="M185.2,383.5c1.5-1,2.2-2.8,1.6-4.5c-0.5-1.7-2.1-2.8-3.9-2.8c-2.7,0.1-26,1.1-27.6,16
		c-0.5,4.4,0.8,8.5,3.8,12.1c8.4,9.9,31,15.8,69.2,18.1c4.5,0.3,9.1,0.4,13.6,0.4c48.5,0,81.2-15.2,82.6-15.8
		c1.3-0.6,2.2-1.9,2.3-3.4c0.1-1.5-0.7-2.9-1.9-3.6l-25-15.3c-0.9-0.5-1.9-0.7-2.9-0.5c-0.2,0-16,3.3-40,6.6
		c-4.5,0.6-10.2,0.9-16.9,0.9c-23.9,0-50.5-3.9-55.6-6.5C184.3,384.6,184.4,384,185.2,383.5z"/>
	<path id="XMLID_14_" d="M219.2,468.6c111.1-0.1,170.8-19.9,182.3-32.3c4.1-4.4,4.5-8.6,4.2-11.3c-0.9-6.7-7-10.8-7.6-11.2
		c-1.7-1.1-3.9-0.8-5.2,0.7c-1.3,1.5-1.3,3.7,0,5.2c0.7,0.9,1.1,2.4-0.9,4.5c-4.6,4.3-50.9,17.3-128.1,21.2
		c-10.6,0.6-21.7,0.8-32.9,0.8c-69.1,0-119.6-9.5-126.3-15c2.6-3.7,20.4-9.5,39.5-12.9c2.1-0.4,3.6-2.4,3.3-4.5
		c-0.3-2.1-2.3-3.6-4.5-3.3c-0.5,0.1-2.4,0.2-4.5,0.3c-31.4,1.9-67.6,6.2-69.5,22.4c-0.6,4.9,0.9,9.4,4.4,13.3
		C81.6,455.9,106,468.6,219.2,468.6C219.2,468.6,219.2,468.6,219.2,468.6z"/>
	<path id="XMLID_15_" d="M423.3,439.8c-1.6-0.7-3.4-0.4-4.6,0.9c-0.2,0.2-16.9,17.7-67.1,27.9c-19.2,3.9-55.3,5.8-107.3,5.8
		c-52.1,0-101.6-2-102.1-2.1c-2.1-0.1-3.8,1.4-4.1,3.4c-0.3,2,1,4,3,4.4c0.5,0.1,52.4,12.3,123.4,12.3c34.1,0,67.2-2.8,98.5-8.2
		c58.4-10.2,62.5-39.2,62.6-40.4C425.8,442.2,424.9,440.5,423.3,439.8z"/>
</g>
</svg>
