<?xml version="1.0" encoding="utf-8"?>
<!-- Generator: Adobe Illustrator 21.0.2, SVG Export Plug-In . SVG Version: 6.00 Build 0)  -->
<svg version="1.1" id="Layer_1" xmlns="http://www.w3.org/2000/svg" xmlns:xlink="http://www.w3.org/1999/xlink" x="0px" y="0px"
	 viewBox="0 0 500 500" style="enable-background:new 0 0 500 500;" xml:space="preserve">
<style type="text/css">
	.st0{fill:#264970;}
</style>
<g>
	<path class="st0" d="M433.6,289.7c-0.6-2-2.6-3.4-4.7-3.4h-45.2c-2.1,0-4,1.4-4.7,3.4l-57.2,181.2c-0.9,2.6,0.6,5.3,3.1,6.1
		c0.4,0.1,1,0.3,1.4,0.3h31.2c2.1,0,4-1.4,4.7-3.4l39.4-133.3c0,0,1-3.3,4.6-3.3c3.6,0,4.6,3.4,4.6,3.4l18.2,63.2h-25
		c-2.1,0-4.1,1.4-4.7,3.6l-7,25c-0.4,1.4-0.1,3,0.9,4.3c0.9,1.3,2.4,2,3.8,2h42.2l11,35.3c0.6,2,2.6,3.4,4.7,3.4H486
		c2.7,0,4.8-2.1,4.8-4.8c0-0.4-0.1-1-0.3-1.4L433.6,289.7"/>
	<path class="st0" d="M220.8,321.6h37.7c19.5,0,23.5,7.7,23.5,20.1v18.5c0,15.4-6,20.6-23.5,20.6h-37.7V321.6z M335.9,469.2
		l-41.4-59.7c17.8-7.4,26.9-22.9,26.9-46.1v-24.5c0-36.3-18.9-52.5-61.5-52.5h-73.7c-2.7,0-4.8,2.1-4.8,4.8v181.2
		c0,2.7,2.1,4.8,4.8,4.8l0,0H216c2.7,0,4.8-2.1,4.8-4.8v-56.8h30.4l41.4,59.6c0.9,1.3,2.4,2.1,4,2.1h35.6c2.7,0,4.8-2.1,4.8-4.8
		C337.2,471.2,336.8,470.1,335.9,469.2L335.9,469.2z M145.1,286.3h-29.7c-2.7,0-4.8,2.1-4.8,4.8v181.2c0,2.7,2.1,4.8,4.8,4.8h29.7
		c2.7,0,4.8-2.1,4.8-4.8V291.1C150,288.4,147.8,286.3,145.1,286.3L145.1,286.3 M75.4,286.3H45.3c-2.6,0-4.7,2.1-4.7,4.6v141.8
		c0,17.8-13.5,23.6-22.8,24.2c-1.3,0-2.7,0.9-3.4,2c-0.9,1.1-1,2.6-0.6,4l7.4,23.9c0.6,2,2.7,3.3,6.1,3.3
		c28.9,0,52.8-22.6,52.8-52.9V291C80,288.4,78,286.3,75.4,286.3L75.4,286.3"/>
	<g>
		<path class="st0" d="M176.2,17.9c-9.2,0-16.8,7.5-16.8,16.8s7.5,16.8,16.8,16.8S193,43.9,193,34.6C193,25.3,185.4,17.9,176.2,17.9
			 M286.3,17.9c-9.2,0-16.8,7.5-16.8,16.8s7.5,16.8,16.8,16.8s16.8-7.5,16.8-16.8C303.1,25.3,295.5,17.9,286.3,17.9 M231.2,2.5
			c-9.2,0-16.8,7.5-16.8,16.8s7.5,16.8,16.8,16.8c9.2,0,16.8-7.5,16.8-16.8S240.5,2.5,231.2,2.5 M325.8,64.5c-0.9-0.7-2-1.1-3.1-1.1
			c-0.6,0-1.3,0.1-1.8,0.3c-11.4,4.4-22.9,7.7-33.4,10.1c-2.1,0.6-3.8,2.1-4.6,4c-7.7,21.1-27.2,41-47.8,61.9
			c-0.9,0.7-2,1.8-3.8,1.8c-1.8,0-3-1-3.8-1.8c-20.5-20.9-40.1-40.8-47.8-61.9c-0.7-1.8-2.4-3.6-4.6-4c-10.5-2.4-22-5.8-33.4-10.2
			c-0.6-0.3-1.3-0.3-1.8-0.3c-1.1,0-2.3,0.4-3.1,1.1c-1.4,1.1-2.1,2.8-2,4.7c1.7,17.5,8.7,34.6,21.1,52.3
			c11.7,16.8,27,32.4,41.7,47.4c27.2,27.7,52.9,53.9,55.1,84.2c0.1,2.7,2.4,4.8,5.3,4.8h32c2.8,0,5.3-2.4,5.3-5.3c0-0.1,0-0.1,0-0.3
			c-1-20.3-8.7-40.7-23.3-62.2c-3.1-4.6-6.4-9-9.8-13.2c-1.4-1.7-0.9-4,0.3-5c1-1.1,2.1-2.1,3.3-3.3c14.8-15.1,30-30.6,41.7-47.4
			c12.4-17.9,19.3-34.9,21.1-52.3C328.1,67.5,327.2,65.7,325.8,64.5 M196.9,192.5c-0.7-0.9-1.8-1.6-3.7-1.6c-2.4,0-3.8,1.7-4.3,2.4
			c-13.4,20.5-20.3,39.7-21.3,59.2c0,1.4,0.4,2.8,1.4,3.8s2.4,1.6,3.8,1.7h31.9c2.7,0,5-2.1,5.3-4.8c0.7-9.4,3.6-18.8,9-28.6
			c1.8-3.4,0.4-6.5-0.7-8C213,209.9,206.5,202.6,196.9,192.5"/>
		<path class="st0" d="M231.2,94.4c10,0,15.8-0.6,17.9-0.6c2.4,0,4.8,2,4.8,4.8c0,0.9-0.1,1.4-0.4,2c-1.3,3.6-7.4,16.4-18.6,27.3
			c-1.3,1.3-2.7,1.4-3.7,1.4l0,0c-1,0-2.4-0.3-3.7-1.4c-11.2-11-17.4-23.8-18.6-27.3c-0.1-0.6-0.4-1.1-0.4-2c0-2.8,2.4-4.8,4.8-4.8
			C215.4,93.8,221.1,94.4,231.2,94.4L231.2,94.4"/>
	</g>
</g>
</svg>
