<?xml version="1.0" encoding="utf-8"?>
<!-- Generator: Adobe Illustrator 21.0.2, SVG Export Plug-In . SVG Version: 6.00 Build 0)  -->
<svg version="1.1"
	 id="svg2" inkscape:version="0.47 r22583" sodipodi:docname="Logo jQuery.pdf" xmlns:cc="http://creativecommons.org/ns#" xmlns:dc="http://purl.org/dc/elements/1.1/" xmlns:inkscape="http://www.inkscape.org/namespaces/inkscape" xmlns:rdf="http://www.w3.org/1999/02/22-rdf-syntax-ns#" xmlns:sodipodi="http://sodipodi.sourceforge.net/DTD/sodipodi-0.dtd" xmlns:svg="http://www.w3.org/2000/svg"
	 xmlns="http://www.w3.org/2000/svg" xmlns:xlink="http://www.w3.org/1999/xlink" x="0px" y="0px" viewBox="0 0 500 500"
	 style="enable-background:new 0 0 500 500;" xml:space="preserve">
<style type="text/css">
	.st0{fill:#21ACE2;}
</style>
<sodipodi:namedview  bordercolor="#666666" borderopacity="1" gridtolerance="10" guidetolerance="10" id="namedview4" inkscape:current-layer="svg2" inkscape:cx="1334.4852" inkscape:cy="92.233937" inkscape:pageopacity="0" inkscape:pageshadow="2" inkscape:window-height="1000" inkscape:window-maximized="1" inkscape:window-width="1680" inkscape:window-x="-8" inkscape:window-y="-8" inkscape:zoom="0.34263606" objecttolerance="10" pagecolor="#ffffff" showgrid="false">
	</sodipodi:namedview>
<g id="g12" transform="matrix(1.25,0,0,-1.25,225.50677,750.09016)" inkscape:groupmode="layer" inkscape:label="Logo jQuery">
	<path id="signet" class="st0" d="M7.7,562.4l-4.2-5.6c-5.6-8.1-6-18.3-2.1-27c3.9-9.6,12.1-16.8,21.6-20.6c0.4-0.2,0.6-0.2,1.2-0.4
		l0.4-0.2c0.4-0.2,1.2-0.4,1.7-0.4c26.6-5.2,33.9,13.5,35.7,16.4c-6.2-9.1-16.8-11.2-29.9-8.1c-0.8,0.2-2.1,0.6-3.1,0.8
		c-1.2,0.4-2.5,0.8-3.7,1.7c-2.3,1.2-4.4,2.5-6.4,3.9C7.5,531.8,0.2,548.6,7.7,562.4L7.7,562.4z M-22.5,555.9l-7.7-10.8
		c-9.4-13.3-8.9-31.4-1.7-45.5c1.2-2.3,2.5-4.6,4.2-6.9c1.5-2.1,3.1-4.4,5-6c0.6-0.6,1.5-1.5,2.1-2.1l0.4-0.4
		c0.6-0.6,1.5-1.5,2.1-1.9l0,0l0,0c0.6-0.6,1.7-1.5,2.5-2.1l0.4-0.4c0.8-0.6,1.7-1.5,2.5-1.9l0,0c0.4-0.2,0.6-0.4,1.2-0.6l0.4-0.4
		c0.6-0.4,1.2-0.6,1.9-1.2l0.2-0.2c0.4-0.2,1.2-0.6,1.7-0.8l0.6-0.2c0.4-0.2,0.6-0.4,1.2-0.6h0.2c0.8-0.4,1.7-0.6,2.5-1.2l0.4-0.2
		c0.6-0.2,1.5-0.4,2.1-0.8c0.2,0,0.6-0.2,0.8-0.2c0.6-0.2,1.2-0.4,1.9-0.6c0.2,0,0.4-0.2,0.8-0.2c0.8-0.2,1.9-0.6,2.7-0.6
		c48-7.9,59,28.9,59,28.9c-10-14.5-29.5-21.2-49.9-15.8c-0.8,0.2-1.9,0.4-2.7,0.6l-0.6,0.2c-0.6,0.2-1.2,0.4-1.9,0.6
		c-0.2,0-0.4,0.2-0.8,0.2c-0.6,0.2-1.5,0.4-2.1,0.8l-0.4,0.2c-0.8,0.4-1.7,0.6-2.5,1.2c-0.4,0.2-0.8,0.4-1.2,0.6L2.3,488
		c-0.4,0.2-1.2,0.6-1.7,0.8L0.2,489c-0.6,0.4-1.5,0.6-1.9,1.2l-0.6,0.4c-0.4,0.2-0.8,0.4-1.2,0.8c-0.8,0.6-1.7,1.2-2.5,1.9l-0.6,0.4
		c-9.1,7.3-16.4,16.8-19.5,28.1C-29.5,532.4-28.5,545.3-22.5,555.9L-22.5,555.9z M-59.9,542.2l-10-12.9
		c-12.9-18.5-11.2-42.4-1.5-62.3c0.2-0.4,0.4-0.8,0.6-1.5c0.2-0.2,0.2-0.6,0.4-0.8l0.2-0.4c0.2-0.2,0.2-0.6,0.4-0.8
		c0.2-0.4,0.6-1.2,0.8-1.7c0.2-0.2,0.2-0.6,0.4-0.8c0.4-0.4,0.6-1.2,1.2-1.7l0.4-0.6c0.4-0.6,1.2-1.7,1.7-2.3l0,0l0.2-0.4
		c0.4-0.6,0.8-1.2,1.5-1.9l0.4-0.6c0.4-0.4,0.8-1.2,1.5-1.7l0.4-0.6c0.6-0.6,1.2-1.5,1.9-2.1l0,0l0,0c0.6-0.6,1.2-1.5,1.9-1.9
		l0.6-0.6c0.4-0.4,0.8-0.8,1.5-1.5l0.6-0.6c0.6-0.6,1.5-1.2,2.1-1.9l0,0l0.2-0.2c0.6-0.4,1.2-0.8,1.9-1.7l0.6-0.6
		c0.4-0.4,0.8-0.8,1.7-1.2l0.8-0.6c0.4-0.4,1.2-0.8,1.9-1.2l0.6-0.4l0.2-0.2c0.4-0.4,1.2-0.6,1.7-1.2l0.6-0.4
		c0.8-0.4,1.9-1.2,2.5-1.7l0.6-0.4c0.6-0.4,1.5-0.6,1.9-1.2c0.4-0.2,0.6-0.4,1.2-0.4c0.4-0.2,0.8-0.4,1.5-0.6l0.2-0.2l0.4-0.2
		c0.6-0.4,1.5-0.6,2.3-1.2l0.4-0.2c0.8-0.4,1.7-0.6,2.5-1.2l0.6-0.2c0.8-0.2,1.7-0.6,2.5-0.8l0.2-0.2c0.8-0.2,1.9-0.6,2.7-0.8
		l0.6-0.2c0.8-0.2,1.9-0.6,2.7-0.6c62.3-11.4,80.2,37.4,80.2,37.4c-15.2-19.7-42.2-24.9-67.7-19.1c-0.8,0.2-1.9,0.4-2.7,0.6
		l-0.6,0.2c-0.8,0.2-1.9,0.4-2.7,0.8l-0.4,0.2c-0.6,0.2-1.7,0.6-2.3,0.8l-0.6,0.2c-0.8,0.2-1.9,0.6-2.5,1.2l-0.4,0.2
		c-0.6,0.2-1.5,0.6-2.1,0.8l-0.6,0.2c-0.4,0.2-1.2,0.4-1.7,0.8c-0.4,0.2-0.6,0.4-1.2,0.6c-0.6,0.4-1.5,0.6-2.1,1.2l-0.6,0.4
		c-0.8,0.4-1.9,1.2-2.5,1.7l-0.6,0.4c-0.6,0.4-1.2,0.8-1.9,1.2l-0.6,0.4c-0.6,0.4-1.2,0.8-1.9,1.5l-0.6,0.6
		c-0.4,0.4-1.2,0.8-1.7,1.2l-0.6,0.6c-0.6,0.4-1.5,1.2-2.1,1.7l-0.2,0.2c-0.6,0.6-1.5,1.5-2.1,1.9l-0.6,0.6
		c-0.4,0.4-0.8,0.8-1.5,1.5l-0.6,0.6c-0.6,0.6-1.2,1.5-1.9,1.9l0,0c-0.6,0.6-1.2,1.5-1.9,2.1l-0.4,0.6c-0.4,0.4-0.8,1.2-1.5,1.7
		l-0.4,0.6c-0.4,0.6-1.2,1.5-1.7,2.1C-66.1,493.6-71.3,520.4-59.9,542.2L-59.9,542.2z"/>
	<path id="jQuery" d="M-76.6,396.3c-28.7,0-41.1-20.7-45.9-43c-4.7-22.4,1.4-42.5,30-42.1l22.4,0.1l20.9-0.1c0.9,0,1.5,0.8,1.9,1.4
		l3.7,13.9c0.1,0.8-0.3,1.4-1.1,1.4h-3.4h-3.4c-0.8,0-1,0.4-1,1l0.1,0.3c0,0,7.9,19.3,9.7,30.4C-40.3,374.6-47.9,396.3-76.6,396.3z
		 M218.7,387.9h-4.6c-0.9,0-2.2,0-3.1,0h-12.1c-0.9,0-1.9-0.5-2.3-1.1l-27-39.7c-0.4-0.8-1-0.5-1.1,0.1l-2,8.8
		c-0.1,0.9-1,1.4-1.9,1.4h-17.3c-0.9,0-1.3-0.5-1-1.4l7.8-27.2c0.3-0.8,0.3-2,0-2.8l-3.4-13.1c-0.1-0.8,0.3-1.4,1.1-1.4h17.2
		c0.9,0,1.5,0.5,1.9,1.4l3.4,13.1c0.1,0.8,0.8,2,1.3,2.6l43.9,58.3C219.8,387.5,219.6,387.9,218.7,387.9L218.7,387.9z M69.6,379.2
		c-28.2,0-34.9-17.2-38.6-34.6c-3.7-17.6-3.4-34.1,25.8-34.1h0.9h0.3h1.9H60c0.3,0,0.5,0,0.9,0h0.1c1.1,0,2.3,0,3.4,0l0,0
		c7.8,0,15.4,0.1,18.6,0.1c0.9,0,1.5,0.8,1.7,1.4l1.1,5.7l0.3,1.1l1.4,6.9c0.1,0.9-0.4,1.4-1.1,1.4H60.5c-10.5,0-13.6,2.7-12.5,10.8
		h42.1l0,0c0.8,0,1.3,0.4,1.5,1.1l0.1,0.4l0,0C98,363.2,96.4,379.2,69.6,379.2L69.6,379.2z M-79.1,378.5
		c15.8,0.4,18.9-11.4,14.9-24.7l-0.4-1.4l0,0l-3.2-11.4l-3.2-11.4c-0.3-0.8-1-1.4-1.9-1.4h-16.7c-12.8,0-15.9,10.1-12.8,24.6
		c3.2,15,9.2,24.4,21.8,25.4C-80,378.5-79.5,378.5-79.1,378.5z M-143.1,378.4c-0.9,0-1.5-0.8-1.9-1.4l-1.5-6.8l-1.5-6.8
		c-0.1-0.8,0.3-1.4,1.1-1.4h16.1c0.9,0,1.5,0.8,1.7,1.4l1.4,6.8l1.4,6.8c0.1,0.9-0.3,1.4-1.1,1.4
		C-127.1,378.4-143.1,378.4-143.1,378.4z M-26.4,378.2c-0.9,0-1.5-0.8-1.7-1.4l-3.2-15.2l-3.3-15.2l0,0l-0.3-1.4
		c-3.7-17-2.7-32.9,17.3-33.5c0.3,0,0.5,0,0.5,0h31.5c0.9,0,1.5,0.8,1.7,1.4l6.9,32l6.9,32c0.1,0.9-0.4,1.4-1.1,1.4H14.2
		c-0.9,0-1.5-0.8-1.7-1.4l-5.1-24l-5.1-24c-0.1-0.9-1-1.4-1.7-1.4H-9.6c-10.2,0-9.1,7-6.9,16.7v0.3l0.3,1.3v0.3l0.4,2.4l0.4,2.7
		c0.1,0.9,0.4,2,0.5,2.7l2.3,11.5l2.3,11.5c0.1,0.9-0.4,1.4-1.1,1.4L-26.4,378.2L-26.4,378.2z M111.4,378c-0.9,0-1.5-0.8-1.7-1.4
		l-0.5-2.8l-0.8-3.3l-0.1-0.9l-6-28.3l-5.7-26.9c-0.1-0.9-0.3-1.7-0.1-2.2c0.1-0.4,1.5-0.8,2.4-0.8h12.1c0.9,0,1.9,0.1,2.3,0.3
		c0.4,0.1,1.1,1.7,1.3,2.6l2.2,10.6l2.2,10.7l0,0l0.3,1.4l2.6,12.4l2.3,10.8c0.1,0.8,1,1.4,1.7,1.4H164c0.9,0,1.3,0.8,1.1,1.4
		l-0.8,2.7l-0.8,2.8l-0.3,1.4c-1.3,5-5.1,8-13.5,8h-13H125L111.4,378L111.4,378z M65.8,363.1c9.1,0,10.8-4.5,10.2-9.4
		c-0.1-0.9-0.9-1.5-1.7-1.5H52.4c-0.8,0-1.1,0.5-1,1.1l0,0v0.1c0,0,0,0.1,0.1,0.4C53.5,359.5,57.7,363.1,65.8,363.1L65.8,363.1z
		 M-147.9,357.5c-0.9,0-1.5-0.8-1.7-1.4l-2.3-10.1l-2.3-10.1c-0.1-0.9-0.4-2.2-0.5-2.8l-2.2-10.2l-2.2-10.2c-0.1-0.9-0.5-2-0.8-2.8
		c0,0-3.1-8.9-8-8.9c-0.1,0-0.4,0-0.5,0c-2.4,0-4.5,0.1-4.5,0.1c-0.9,0-1.5-0.5-1.9-1.4l-1.7-7l-1.7-7c-0.1-0.8,0.3-1.4,1.1-1.4
		c2.8,0,9.3-0.1,13.1-0.1c12.6,0,19.4,7,23.6,27.2l5,23.1l4.7,21.7c0.1,0.9-0.4,1.4-1.1,1.4L-147.9,357.5L-147.9,357.5z"/>
	<path id="claim" class="st0" d="M-23.6,295.8c-1.3,0-2.3-0.4-2.7-2c-0.3-1.5,0.5-2,1.9-2c1.3,0,2.3,0.4,2.7,2
		C-21.5,295.4-22.4,295.8-23.6,295.8L-23.6,295.8z M10.2,295.3l-0.5-2.8l2.2-0.4l-2.2-9.9l-0.5-5.4H12l4,18.5H10.2L10.2,295.3z
		 M81.5,295.3l-1.7-5.6c0,0-2,0.8-3.6,0.8c-4.2,0-5.7-3.3-6.5-6.9c-0.8-3.4-0.5-6.9,3.6-6.9c1.5,0,4,1,4,1l0.4-0.9h2.7l0.4,1.7
		l3.6,16.7L81.5,295.3L81.5,295.3z M-18.1,293.5l-1.3-3.3h-2.2l-0.5-2.8l2.2-0.4l-1-5c-0.8-3.2-0.8-5.4,3.2-5.4c1,0,3.3,0.8,3.3,0.8
		l0.5,2.7h-2.7c-1.3,0-1.3,0.4-1,1.9l1.1,5l3.7,0.4l0.5,2.8H-16l0.8,3.3H-18.1L-18.1,293.5z M-4.4,290.3c-5.6,0-7-3.4-7.8-6.9
		c-0.8-3.6-0.8-6.9,5.1-6.9c2.3,0,5.6,0.9,5.6,0.9l0.5,2.4h-5.2c-2.2,0-2.7,0.5-2.4,2.2H0C1.4,287.1,1,290.3-4.4,290.3L-4.4,290.3z
		 M23.6,290.3c-5.6,0-7-3.4-7.8-6.9c-0.8-3.6-0.8-6.9,5.1-6.9c2.3,0,5.5,0.9,5.5,0.9l0.5,2.4h-5.4c-2.2,0-2.7,0.5-2.4,2.2h8.5
		C29.3,287.1,29,290.3,23.6,290.3z M161,290.3c-5.6,0-7-3.4-7.8-6.9c-0.8-3.6-0.8-6.9,5.1-6.9c2.3,0,5.5,0.9,5.5,0.9l0.5,2.4H159
		c-2.2,0-2.7,0.5-2.4,2.2h8.5C166.8,287.1,166.5,290.3,161,290.3L161,290.3z M115,290.2c-1.4,0-3.3-1-3.3-1l-0.4,0.9h-2.7l-2.8-13.3
		h3.4l2.2,10.1h1.3c2,0,1.7-1.4,1.4-3.4l-0.3-1.4l-0.5-5.1h3.1l1.4,6.6c0.3,1.1,0.4,2.3,0.4,3.3h1.5c2,0,1.7-1.4,1.4-3.4l-0.3-1.4
		l-0.5-5.1h3.1l1.4,6.6c0.8,3.4,0.9,6.9-3.3,6.9c-1.3,0-3.2-0.9-3.8-1.1C116.9,289.8,116.2,290.2,115,290.2L115,290.2z M-33.2,290.2
		c-1.5,0-3.2-1-3.2-1l-0.4,0.8h-2.7l-0.4-1.7l-2.4-11.6h2.9l1.5,5.1l1,4.8h1.5c1.1,0,1.1-0.4,0.8-2.4h3.4
		C-30.1,287.7-29.9,290.2-33.2,290.2L-33.2,290.2z M37.2,290.2c-4,0-6.1-2-6.6-4.3c-0.3-1.7-0.1-3.4-0.1-3.4l6.9-0.5l-0.1-0.9
		c-0.1-0.5-0.4-1.1-2.6-1.1h-4.8l-0.5-2.6c0,0,3.2-0.8,5.1-0.8c4,0,6.1,2.2,6.6,4.3c0.3,1.3,0.3,3.6,0.3,3.6l-7,0.5l0.1,0.8
		c0.1,0.8,0.4,1.4,2.6,1.4c1,0,4.8,0,4.8,0l0.5,2.6C42.3,289.5,39.1,290.2,37.2,290.2L37.2,290.2z M50.3,290.2c-4,0-6.1-2-6.6-4.3
		c-0.3-1.7-0.1-3.4-0.1-3.4l6.9-0.5l-0.1-0.9c-0.1-0.5-0.4-1.1-2.6-1.1h-4.8l-0.5-2.6c0,0,3.2-0.8,5.1-0.8c4,0,6.1,2.2,6.6,4.3
		c0.3,1.3,0.3,3.6,0.3,3.6l-7,0.5l0.1,0.8c0.1,0.8,0.4,1.4,2.6,1.4c1,0,4.8,0,4.8,0l0.5,2.6C55.3,289.5,52.3,290.2,50.3,290.2
		L50.3,290.2z M92.3,290.2c-5.5,0-7.3-3.3-8-6.9c-0.8-3.4-0.3-6.9,5.1-6.9c5.5,0,7.3,3.3,8,6.9C98.2,286.8,97.7,290.2,92.3,290.2z
		 M134.4,290.2c-5.5,0-7.3-3.3-8-6.9c-0.8-3.4-0.3-6.9,5-6.9c5.5,0,7.3,3.3,8,6.9C140.3,286.8,139.9,290.2,134.4,290.2z
		 M149.8,290.2c-1.5,0-3.2-1-3.2-1l-0.4,0.8h-2.7l-0.4-1.7l-2.4-11.6h3.1l1.5,5.1l1,4.8h1.5c1,0,1.1-0.4,0.8-2.4h3.4
		C152.8,287.7,153,290.2,149.8,290.2L149.8,290.2z M-60.2,290l-0.5-2.6l0.1-10.7h5l3.8,9.7l-0.5-9.7h5.1l4.7,10.7l0.5,2.6h-3.1
		l-3.8-10.7l0.4,10.7h-5.1l-4-10.6l0.8,10.6H-60.2z M-28.7,290l-0.5-2.8l2.2-0.4l-1-4.8l-0.5-5.1h3.1l2.8,13.3h-6V290z M-5.1,287.1
		c2,0,2.3-1,2-2.2l-5-0.4C-7.7,286.2-6.8,287.1-5.1,287.1z M22.8,287.1c2,0,2.2-1,2-2.2l-5-0.4C20.1,286.2,21.1,287.1,22.8,287.1z
		 M160.4,287.1c2,0,2.2-1,2-2.2l-5-0.4C157.6,286.2,158.5,287.1,160.4,287.1z M91.7,286.8c2.6,0,2.7-1.4,2.3-3.6
		c-0.4-2.2-1.3-3.6-3.8-3.6c-2.6,0-2.7,1.4-2.3,3.6C88.4,285.4,89,286.8,91.7,286.8L91.7,286.8z M133.8,286.8c2.6,0,2.7-1.4,2.3-3.6
		c-0.4-2.2-1.3-3.6-3.8-3.6c-2.6,0-2.7,1.4-2.3,3.6C130.4,285.4,131.3,286.8,133.8,286.8L133.8,286.8z M76.4,286.7H79l-1.4-6.8H75
		c-2,0-2,1.3-1.5,3.4C73.7,285.6,74.4,286.7,76.4,286.7z M169.2,280.6c-1.4,0-2.4-0.4-2.7-2c-0.3-1.5,0.4-2,1.9-2
		c1.3,0,2.3,0.4,2.7,2C171.4,280.2,170.6,280.6,169.2,280.6z M58,280.5c-1.3,0-2.3-0.4-2.7-2c-0.3-1.1,0.3-1.9,1.1-1.9l-0.1-2h2.6
		l0.9,3.8C60,280.2,59.3,280.5,58,280.5L58,280.5z"/>
</g>
</svg>
