<?xml version="1.0" encoding="utf-8"?>
<!-- Generator: Adobe Illustrator 21.0.2, SVG Export Plug-In . SVG Version: 6.00 Build 0)  -->
<svg version="1.1"
	 id="svg2" inkscape:version="0.48.4 r9939" sodipodi:docname="Logo_MySQL.svg" xmlns:cc="http://creativecommons.org/ns#" xmlns:dc="http://purl.org/dc/elements/1.1/" xmlns:inkscape="http://www.inkscape.org/namespaces/inkscape" xmlns:rdf="http://www.w3.org/1999/02/22-rdf-syntax-ns#" xmlns:sodipodi="http://sodipodi.sourceforge.net/DTD/sodipodi-0.dtd" xmlns:svg="http://www.w3.org/2000/svg"
	 xmlns="http://www.w3.org/2000/svg" xmlns:xlink="http://www.w3.org/1999/xlink" x="0px" y="0px" viewBox="0 0 500 500"
	 style="enable-background:new 0 0 500 500;" xml:space="preserve">
<style type="text/css">
	.st0{fill:#00546B;}
</style>
<sodipodi:namedview  bordercolor="#666666" borderopacity="1" fit-margin-bottom="0" fit-margin-left="0" fit-margin-right="0" fit-margin-top="0" gridtolerance="10" guidetolerance="10" id="namedview14" inkscape:current-layer="svg2" inkscape:cx="317.73483" inkscape:cy="242.88028" inkscape:pageopacity="0" inkscape:pageshadow="2" inkscape:window-height="1017" inkscape:window-maximized="1" inkscape:window-width="1920" inkscape:window-x="-8" inkscape:window-y="-8" inkscape:zoom="0.60235022" objecttolerance="10" pagecolor="#ffffff" showgrid="false">
	</sodipodi:namedview>
<g id="g3001" transform="translate(230.46016,6.4962049)">
	<path id="path16" inkscape:connector-curvature="0" class="st0" d="M217.5,369.2c-25.8-0.6-45.7,1.9-62.5,9
		c-4.8,1.9-12.6,1.9-13.2,8c2.6,2.6,2.9,6.8,5.2,10.3c3.9,6.4,10.6,15.1,16.7,19.6c6.8,5.1,13.5,10.3,20.6,14.8
		c12.6,7.7,26.7,12.2,39,20c7.1,4.5,14.2,10.3,21.2,15.1c3.5,2.6,5.8,6.8,10.3,8.4c0-0.3,0-0.6,0-1c-2.3-2.9-2.9-7.1-5.1-10.3
		c-3.2-3.2-6.4-6.1-9.7-9.3c-9.3-12.6-20.9-23.5-33.5-32.5c-10.3-7.1-32.8-16.7-37-28.7c0,0-0.3-0.3-0.6-0.6
		c7.1-0.6,15.5-3.2,22.2-5.2c10.9-2.9,20.9-2.3,32.2-5.1c5.1-1.3,10.3-2.9,15.5-4.5c0-1,0-1.9,0-2.9c-5.8-5.8-10-13.5-16.1-19
		c-16.4-14.2-34.4-28-53.1-39.6c-10-6.4-22.9-10.6-33.5-16.1c-3.9-1.9-10.3-2.9-12.6-6.1c-5.8-7.1-9-16.4-13.2-24.8
		c-9.3-17.7-18.3-37.3-26.4-56c-5.8-12.6-9.3-25.1-16.4-36.7C34.3,121.4-1.7,88.2-57.1,55.7C-69,48.9-83.2,46-98.3,42.5
		c-8-0.3-16.1-1-24.1-1.3c-5.1-2.3-10.3-8.4-14.8-11.3c-18.3-11.6-65.7-36.7-79.2-3.5c-8.7,20.9,12.9,41.5,20.3,52.2
		c5.5,7.4,12.6,15.8,16.4,24.1c2.3,5.5,2.9,11.3,5.1,17.1c5.2,14.2,10,29.9,16.7,43.1c3.5,6.8,7.4,13.8,11.9,20
		c2.6,3.5,7.1,5.2,8,10.9c-4.5,6.4-4.8,16.1-7.4,24.1c-11.6,36.4-7.1,81.4,9.3,108.2c5.1,8,17.4,25.8,33.8,19
		c14.5-5.8,11.3-24.1,15.5-40.2c1-3.9,0.3-6.4,2.3-9c0,0.3,0,0.6,0,0.6c4.5,9,9,17.7,13.2,26.7c10,15.8,27.4,32.2,41.8,43.1
		c7.7,5.8,13.8,15.8,23.5,19.3c0-0.3,0-0.6,0-1c-0.3,0-0.3,0-0.6,0c-1.9-2.9-4.8-4.2-7.4-6.4c-5.8-5.8-12.2-12.9-16.7-19.3
		c-13.5-18-25.4-38-36.1-58.6c-5.1-10-9.7-20.9-13.8-30.9c-1.9-3.9-1.9-9.7-5.2-11.6c-4.8,7.1-11.9,13.2-15.5,21.9
		c-6.1,13.8-6.8,30.9-9,48.6c-1.3,0.3-0.6,0-1.3,0.6c-10.3-2.6-13.8-13.2-17.7-22.2c-9.7-22.9-11.3-59.6-2.9-86
		c2.3-6.8,11.9-28,8-34.4c-1.9-6.1-8.4-9.7-11.9-14.5c-4.2-6.1-8.7-13.8-11.6-20.6c-7.7-18-11.6-38-20-56
		c-3.9-8.4-10.6-17.1-16.1-24.8c-6.1-8.7-12.9-14.8-17.7-25.1c-1.6-3.5-3.9-9.3-1.3-13.2c0.6-2.6,1.9-3.5,4.5-4.2
		c4.2-3.5,16.1,1,20.3,2.9c11.9,4.8,21.9,9.3,31.9,16.1c4.5,3.2,9.3,9.3,15.1,10.9c2.3,0,4.5,0,6.8,0c10.3,2.3,21.9,0.6,31.5,3.5
		C-75.4,66.9-60,75-46.1,83.7C-4,110.4,30.8,148.4,54.3,193.8c3.9,7.4,5.5,14.2,9,21.9c6.8,15.8,15.1,31.9,21.9,47.3
		c6.8,15.1,13.2,30.6,22.9,43.1c4.8,6.8,24.1,10.3,32.8,13.8c6.4,2.9,16.4,5.5,22.2,9c10.9,6.8,21.9,14.5,32.2,21.9
		C200.5,354.7,216.6,362.8,217.5,369.2L217.5,369.2L217.5,369.2z"/>
	<path id="path18" inkscape:connector-curvature="0" class="st0" d="M-110.8,89.5c-5.5,0-9.3,0.6-13.2,1.6c0,0,0,0.3,0,0.6
		c0.3,0,0.3,0,0.6,0c2.6,5.1,7.1,8.7,10.3,13.2c2.6,5.1,4.8,10.3,7.4,15.5c0.3-0.3,0.6-0.6,0.6-0.6c4.5-3.2,6.8-8.4,6.8-16.1
		c-1.9-2.3-2.3-4.5-3.9-6.8C-104.1,93.7-108.3,92.1-110.8,89.5C-110.8,89.5-110.8,89.5-110.8,89.5z"/>
</g>
</svg>
