<?xml version="1.0" encoding="utf-8"?>
<!-- Generator: Adobe Illustrator 21.0.2, SVG Export Plug-In . SVG Version: 6.00 Build 0)  -->
<svg version="1.1" id="Livello_1" xmlns="http://www.w3.org/2000/svg" xmlns:xlink="http://www.w3.org/1999/xlink" x="0px" y="0px"
	 viewBox="0 0 500 500" style="enable-background:new 0 0 500 500;" xml:space="preserve">
<style type="text/css">
	.st0{fill:url(#SVGID_1_);}
	.st1{fill:url(#SVGID_2_);}
	.st2{fill:url(#SVGID_3_);}
	.st3{fill:url(#SVGID_4_);}
</style>
<g>
	<g id="Layer_2_1_">
		<g>
			
				<linearGradient id="SVGID_1_" gradientUnits="userSpaceOnUse" x1="122.2045" y1="521.0374" x2="312.8322" y2="118.233" gradientTransform="matrix(1 0 0 -1 0 501)">
				<stop  offset="0" style="stop-color:#A0CBFF"/>
				<stop  offset="0.3941" style="stop-color:#A0CBFE"/>
				<stop  offset="0.583" style="stop-color:#8EC2FC"/>
				<stop  offset="0.7838" style="stop-color:#83BCFB"/>
				<stop  offset="1" style="stop-color:#7FBAFB"/>
			</linearGradient>
			<rect x="1.4" y="5.5" class="st0" width="497.3" height="489"/>
		</g>
	</g>
	<g id="Layer_2">
		<g>
			
				<linearGradient id="SVGID_2_" gradientUnits="userSpaceOnUse" x1="184.8287" y1="469.3256" x2="301.6599" y2="81.0867" gradientTransform="matrix(1 0 0 -1 0 501)">
				<stop  offset="0" style="stop-color:#090058"/>
				<stop  offset="1" style="stop-color:#070033"/>
			</linearGradient>
			<rect x="23.3" y="25.4" class="st1" width="453.5" height="445.9"/>
		</g>
	</g>
	<g id="Layer_4">
		<g>
			
				<linearGradient id="SVGID_3_" gradientUnits="userSpaceOnUse" x1="47.167" y1="522.2275" x2="253.8676" y2="85.4603" gradientTransform="matrix(1 0 0 -1 0 501)">
				<stop  offset="0" style="stop-color:#A0CBFF"/>
				<stop  offset="0.3941" style="stop-color:#A0CBFE"/>
				<stop  offset="0.583" style="stop-color:#8EC2FC"/>
				<stop  offset="0.7838" style="stop-color:#83BCFB"/>
				<stop  offset="1" style="stop-color:#7FBAFB"/>
			</linearGradient>
			<path class="st2" d="M110.7,132.7c0,0,34.1-0.9,62.2-0.9c28.4,0,48.6,6.7,62.2,18.4c13,11.1,21.7,30,21.7,51.5
				s-6.6,39.1-18.7,51.5c-15.7,16-34,25.4-65.2,26.7c-8.6,0.4-16.6,0.4-16.6,0.4v69.9h-45.6L110.7,132.7L110.7,132.7z M156.3,241.5
				c5,0.5,8.1,0.2,15.4,0.2c24.4-0.3,39.5-15.2,39.5-37.6c0-20.2-12.4-36.8-35.9-37.6c-9.4-0.3-19,0-19,0V241.5z"/>
			<g>
				
					<linearGradient id="SVGID_4_" gradientUnits="userSpaceOnUse" x1="164.9058" y1="579.2541" x2="372.4226" y2="140.7618" gradientTransform="matrix(1 0 0 -1 0 501)">
					<stop  offset="0" style="stop-color:#A0CBFF"/>
					<stop  offset="0.3941" style="stop-color:#A0CBFE"/>
					<stop  offset="0.583" style="stop-color:#8EC2FC"/>
					<stop  offset="0.7838" style="stop-color:#83BCFB"/>
					<stop  offset="1" style="stop-color:#7FBAFB"/>
				</linearGradient>
				<path class="st3" d="M274.2,301.5c9.2,5.6,30.9,14.1,45.6,14.1c15.1,0,21.3-5.3,21.3-13.6c0-8.3-4.9-17-23.6-23.3
					c-33.1-11.3-45.9-24.8-45.6-43.7c0-30.5,25.6-53.4,65.3-53.4c18.7,0,33.6,6.1,43.5,11.1v36.7c-7.2-4-28.1-12.9-41.8-12.9
					c-12.1,0-19,5-19,13.3c0,7.6,6.2,11.6,25.9,18.6c30.5,10.6,43.3,26.2,43.6,50.1c0,30.2-23.3,54.2-69.6,52.8
					c-15.9-0.5-33.5-6.8-45.6-13.4L274.2,301.5L274.2,301.5z"/>
			</g>
		</g>
	</g>
</g>
</svg>
