<?xml version="1.0" encoding="utf-8"?>
<!-- Generator: Adobe Illustrator 21.0.2, SVG Export Plug-In . SVG Version: 6.00 Build 0)  -->
<svg version="1.1" id="svg3430" xmlns="http://www.w3.org/2000/svg" xmlns:xlink="http://www.w3.org/1999/xlink" x="0px" y="0px"
	 viewBox="0 0 500 500" style="enable-background:new 0 0 500 500;" xml:space="preserve">
<style type="text/css">
	.st0{clip-path:url(#SVGID_2_);}
	.st1{fill:url(#path3462_1_);}
	.st2{clip-path:url(#SVGID_4_);}
	.st3{fill:#777BB3;}
	.st4{clip-path:url(#SVGID_6_);}
	.st5{fill:#FFFFFF;}
</style>
<g id="g3438" transform="matrix(1.25 0 0 -1.25 -4.4 394.3)">
	<g id="g3440">
		<g>
			<g>
				<defs>
					<path id="SVGID_1_" d="M12.7,103.3C12.7,47.8,98.3,2.7,203.8,2.7S395,47.7,395,103.3s-85.6,100.6-191.1,100.6
						S12.7,158.8,12.7,103.3"/>
				</defs>
				<clipPath id="SVGID_2_">
					<use xlink:href="#SVGID_1_"  style="overflow:visible;"/>
				</clipPath>
				<g id="g3442" class="st0">
					<g id="g3448">
						<g id="g3450">
							
								<radialGradient id="path3462_1_" cx="6.5027" cy="-152.8237" r="0.6914" gradientTransform="matrix(567.2812 0 0 -567.2812 -3561.4541 -86525.5312)" gradientUnits="userSpaceOnUse">
								<stop  offset="0" style="stop-color:#AEB2D5"/>
								<stop  offset="0.3" style="stop-color:#AEB2D5"/>
								<stop  offset="0.75" style="stop-color:#484C89"/>
								<stop  offset="1" style="stop-color:#484C89"/>
							</radialGradient>
							<path id="path3462" class="st1" d="M12.7,103.3C12.7,47.8,98.3,2.7,203.8,2.7S395,47.7,395,103.3s-85.6,100.6-191.1,100.6
								S12.7,158.8,12.7,103.3"/>
						</g>
					</g>
				</g>
			</g>
		</g>
	</g>
	<g id="g3464">
		<g>
			<g>
				<defs>
					<rect id="SVGID_3_" x="-107.3" y="-71.7" width="622.2" height="350"/>
				</defs>
				<clipPath id="SVGID_4_">
					<use xlink:href="#SVGID_3_"  style="overflow:visible;"/>
				</clipPath>
				<g id="g3466" class="st2">
					<g id="g3472" transform="translate(288 27.36)">
						<path id="path3474" class="st3" d="M-84.2-17.2c101.4,0,183.7,41.7,183.7,93.1S17.2,169-84.2,169s-183.7-41.7-183.7-93.1
							S-185.6-17.2-84.2-17.2"/>
					</g>
				</g>
			</g>
		</g>
	</g>
	<g id="g3476">
		<g>
			<g>
				<defs>
					<rect id="SVGID_5_" x="-107.3" y="-71.7" width="622.2" height="350"/>
				</defs>
				<clipPath id="SVGID_6_">
					<use xlink:href="#SVGID_5_"  style="overflow:visible;"/>
				</clipPath>
				<g id="g3478" class="st4">
					<g id="g3484" transform="translate(161.73 145.31)">
						<path id="path3486" d="M-45.2-53.6c8.3,0,14.6,1.5,18.5,4.6c3.9,3,6.6,8.2,8,15.5c1.3,6.8,0.8,11.5-1.5,14.1
							c-2.4,2.6-7.4,3.9-15.1,3.9h-13.3l-7.4-38L-45.2-53.6L-45.2-53.6z M-88.8-100.4c-0.6,0-1.2,0.3-1.6,0.8s-0.6,1.1-0.4,1.7
							L-71.2,2.9c0.2,1,1,1.7,2,1.7H-27C-13.7,4.6-3.9,1,2.3-6.1S10.5-23.2,8-35.8C7.1-41,5.4-45.7,3-50s-5.5-8.2-9.3-11.7
							c-4.6-4.3-9.8-7.4-15.4-9.2c-5.5-1.8-12.6-2.7-21.1-2.7H-60l-4.9-25.1c-0.2-1-1-1.7-2-1.7H-88.8L-88.8-100.4z"/>
					</g>
					<g id="g3488" transform="translate(159.22 197.31)">
						<path id="path3490" class="st5" d="M-44.4-69.6h11.6c9.3,0,12.5-2,13.6-3.2c1.8-2,2.2-6.3,1-12.3c-1.3-6.7-3.7-11.5-7.2-14.2
							c-3.6-2.7-9.4-4.1-17.2-4.1H-51L-44.4-69.6z M-24.5-45.4h-42.2c-2,0-3.7-1.4-4.1-3.4l-19.6-100.8c-0.2-1.2,0.1-2.5,0.9-3.4
							c0.8-1,2-1.5,3.2-1.5h22c2,0,3.7,1.4,4.1,3.4l4.6,23.4h15.4c8.7,0,16,0.9,21.8,2.8c5.9,1.9,11.3,5.2,16.1,9.7
							c4,3.7,7.3,7.8,9.7,12.2c2.5,4.4,4.3,9.4,5.3,14.7c2.6,13.2,0.5,23.8-6.2,31.4S-10.6-45.4-24.5-45.4 M-56.1-107.6h13.4
							c8.9,0,15.4,1.7,19.8,5c4.3,3.3,7.3,8.9,8.8,16.7c1.5,7.5,0.8,12.8-2,15.9c-2.8,3.1-8.3,4.6-16.7,4.6h-15L-56.1-107.6
							 M-24.5-49.6c12.7,0,22-3.3,27.8-10s7.6-16,5.3-27.9c-1-4.9-2.6-9.4-4.8-13.5c-2.3-4.1-5.3-7.8-8.9-11.2
							c-4.4-4.1-9.3-7-14.6-8.8c-5.4-1.7-12.2-2.6-20.5-2.6H-59l-5.2-26.8h-22l19.6,100.8L-24.5-49.6"/>
					</g>
					<g id="g3492" transform="translate(311.58 116.31)">
						<path id="path3494" d="M-91.5-44.6c-0.6,0-1.2,0.3-1.6,0.8s-0.6,1.1-0.4,1.7l8.7,44.6c0.8,4.2,0.6,7.3-0.6,8.6
							c-0.7,0.8-2.9,2.1-9.4,2.1h-15.7l-10.9-56c-0.2-1-1-1.7-2-1.7h-21.8c-0.6,0-1.2,0.3-1.6,0.8c-0.4,0.5-0.6,1.1-0.4,1.7
							l19.6,100.8c0.2,1,1,1.7,2,1.7h21.8c0.6,0,1.2-0.3,1.6-0.8s0.6-1.1,0.4-1.7l-4.7-24.3h16.9c12.9,0,21.6-2.3,26.7-6.9
							c5.2-4.8,6.8-12.4,4.8-22.6l-9.1-46.9c-0.2-1-1-1.7-2-1.7h-22.3V-44.6z"/>
					</g>
					<g id="g3496" transform="translate(293.66 271.06)">
						<path id="path3498" class="st5" d="M-85.9-92.4h-21.8c-2,0-3.7-1.4-4.1-3.4l-19.6-100.8c-0.2-1.2,0.1-2.5,0.9-3.4
							c0.8-1,2-1.5,3.2-1.5h21.8c2,0,3.7,1.4,4.1,3.4l10.6,54.4h14c6.5,0,7.8-1.4,7.9-1.4c0.4-0.4,0.9-2.4,0.1-6.8l-8.7-44.6
							c-0.2-1.2,0.1-2.5,0.9-3.4c0.8-1,2-1.5,3.2-1.5h22.1c2,0,3.7,1.4,4.1,3.4l9.1,46.9c2.1,11,0.3,19.3-5.4,24.5
							c-5.5,5-14.7,7.5-28.1,7.5H-86l4.2,21.9c0.2,1.2-0.1,2.5-0.9,3.4C-83.5-92.9-84.7-92.4-85.9-92.4 M-85.9-96.5l-5.2-26.8h19.4
							c12.2,0,20.6-2.1,25.3-6.4c4.6-4.3,6-11.2,4.2-20.7l-9.1-46.9h-22.1l8.7,44.6c1,5.1,0.6,8.5-1.1,10.4
							c-1.7,1.8-5.4,2.8-10.9,2.8h-17.4l-11.2-57.7h-21.8l19.6,100.8L-85.9-96.5"/>
					</g>
					<g id="g3500" transform="translate(409.55 145.31)">
						<path id="path3502" d="M-121.7-53.6c8.3,0,14.6,1.5,18.5,4.6c3.9,3,6.6,8.2,8,15.5c1.3,6.8,0.8,11.5-1.5,14.1
							c-2.4,2.6-7.4,3.9-15.1,3.9h-13.3l-7.4-38L-121.7-53.6L-121.7-53.6z M-165.3-100.4c-0.6,0-1.2,0.3-1.6,0.8
							c-0.4,0.5-0.6,1.1-0.4,1.7l19.6,100.8c0.2,1,1,1.7,2,1.7h42.2c13.3,0,23.1-3.6,29.3-10.7c6.2-7.1,8.2-17.1,5.7-29.7
							c-1-5.1-2.7-9.9-5.1-14.1c-2.4-4.3-5.5-8.2-9.3-11.7c-4.6-4.3-9.8-7.4-15.4-9.2c-5.5-1.8-12.6-2.7-21.1-2.7h-17.1l-4.9-25.1
							c-0.2-1-1-1.7-2-1.7L-165.3-100.4L-165.3-100.4z"/>
					</g>
					<g id="g3504" transform="translate(407.04 197.31)">
						<path id="path3506" class="st5" d="M-120.9-69.6h11.6c9.3,0,12.5-2,13.6-3.2c1.8-2,2.2-6.3,1-12.3c-1.3-6.7-3.7-11.5-7.2-14.2
							c-3.6-2.7-9.4-4.1-17.2-4.1h-8.3L-120.9-69.6z M-101-45.4h-42.2c-2,0-3.7-1.4-4.1-3.4l-19.6-100.8c-0.2-1.2,0.1-2.5,0.9-3.4
							c0.8-1,2-1.5,3.2-1.5h22c2,0,3.7,1.4,4.1,3.4l4.6,23.4h15.4c8.7,0,16,0.9,21.8,2.8c5.9,1.9,11.3,5.2,16.1,9.7
							c4,3.7,7.2,7.8,9.7,12.2c2.5,4.4,4.3,9.4,5.3,14.7c2.6,13.2,0.5,23.8-6.2,31.4C-76.7-49.3-87.1-45.4-101-45.4 M-132.6-107.6
							h13.4c8.9,0,15.4,1.7,19.8,5c4.3,3.3,7.3,8.9,8.8,16.7c1.5,7.5,0.8,12.8-2,15.9c-2.8,3.1-8.3,4.6-16.7,4.6h-15L-132.6-107.6
							 M-101-49.6c12.7,0,22-3.3,27.8-10s7.6-16,5.3-27.9c-1-4.9-2.6-9.4-4.8-13.5c-2.3-4.1-5.3-7.8-8.9-11.2
							c-4.4-4.1-9.3-7-14.6-8.8c-5.4-1.7-12.2-2.6-20.5-2.6h-18.8l-5.2-26.8h-22l19.6,100.8L-101-49.6"/>
					</g>
				</g>
			</g>
		</g>
	</g>
</g>
</svg>
