<?xml version="1.0" encoding="utf-8"?>
<!-- Generator: Adobe Illustrator 21.0.2, SVG Export Plug-In . SVG Version: 6.00 Build 0)  -->
<svg version="1.1" id="Layer_1" xmlns="http://www.w3.org/2000/svg" xmlns:xlink="http://www.w3.org/1999/xlink" x="0px" y="0px"
	 viewBox="0 0 500 500" style="enable-background:new 0 0 500 500;" xml:space="preserve">
<style type="text/css">
	.st0{stroke:#000000;stroke-width:37.3953;}
	.st1{fill:#336791;}
	.st2{fill:none;stroke:#FFFFFF;stroke-width:12.4651;stroke-linecap:round;stroke-linejoin:round;}
	.st3{fill:none;stroke:#FFFFFF;stroke-width:12.4651;stroke-linecap:round;stroke-linejoin:bevel;}
	.st4{fill:#FFFFFF;stroke:#FFFFFF;stroke-width:4.155;}
	.st5{fill:#FFFFFF;stroke:#FFFFFF;stroke-width:2.0775;}
	.st6{fill:none;stroke:#FFFFFF;stroke-width:3;stroke-linecap:round;stroke-linejoin:round;}
</style>
<g id="orginal">
</g>
<g id="Layer_x0020_3">
	<path class="st0" d="M371.7,364.3c3.2-26.4,2.2-30.2,21.9-26l5,0.4c15.1,0.7,34.9-2.4,46.5-7.8c25-11.6,39.8-31,15.2-25.9
		c-56.2,11.6-60.1-7.4-60.1-7.4c59.3-88.1,84.2-199.8,62.7-227.2C404.4-4.1,303.3,31.2,301.7,32.1l-0.5,0.1
		c-11.1-2.3-23.5-3.7-37.5-3.9c-25.4-0.4-44.7,6.7-59.4,17.8c0,0-180.4-74.3-172,93.4c1.8,35.7,51.1,270,110,199.2
		c21.5-25.9,42.3-47.8,42.3-47.8c10.3,6.9,22.7,10.4,35.7,9.1l1-0.9c-0.3,3.2-0.2,6.4,0.4,10.1c-15.2,16.9-10.7,19.9-41,26.2
		C150,341.8,168,353,179.8,356c14.3,3.6,47.3,8.6,69.6-22.6l-0.9,3.6c5.9,4.8,5.5,34.2,6.4,55.3c0.8,21,2.3,40.7,6.5,52.3
		c4.3,11.6,9.4,41.4,49.2,32.9C343.9,470.2,369.4,459.9,371.7,364.3"/>
	<path class="st1" d="M460.2,305.1c-56.2,11.6-60.1-7.4-60.1-7.4c59.3-88.1,84.2-199.8,62.7-227.2C404.5-4.1,303.3,31.2,301.7,32.1
		l-0.5,0.1c-11.1-2.3-23.5-3.7-37.5-3.9c-25.4-0.4-44.7,6.7-59.4,17.8c0,0-180.4-74.3-172,93.4c1.8,35.7,51.1,270,110,199.2
		c21.5-25.9,42.3-47.8,42.3-47.8c10.3,6.9,22.7,10.4,35.7,9.1l1-0.9c-0.3,3.2-0.2,6.4,0.4,10.1c-15.2,16.9-10.7,19.9-41,26.2
		C150,341.8,168,353,179.8,356c14.3,3.6,47.3,8.6,69.6-22.6l-0.9,3.6c5.9,4.8,10.1,31,9.4,54.7c-0.7,23.8-1.2,40.1,3.5,52.8
		s9.4,41.4,49.2,32.9c33.3-7.1,50.6-25.6,53-56.5c1.7-21.9,5.6-18.7,5.8-38.3l3.1-9.3c3.6-29.7,0.6-39.3,21.1-34.9l5,0.4
		c15.1,0.7,34.9-2.4,46.5-7.8C470,319.4,484.8,300,460.2,305.1L460.2,305.1z"/>
	<path class="st2" d="M251.8,322.2c-1.5,55.3,0.4,111,5.8,124.6c5.4,13.5,17,39.9,56.9,31.3c33.3-7.1,45.4-21,50.7-51.5
		c3.9-22.4,11.3-84.8,12.3-97.5"/>
	<path class="st2" d="M204,44.8c0,0-180.5-73.8-172.1,94c1.8,35.7,51.2,270,110,199.2c21.5-25.9,41-46.2,41-46.2"/>
	<path class="st2" d="M301.5,31.3c-6.2,2,100.4-39,161,38.5c21.4,27.4-3.4,139.1-62.7,227.2"/>
	<path class="st3" d="M399.7,297c0,0,3.9,19,60.1,7.4c24.6-5.1,9.8,14.3-15.2,25.9c-20.5,9.5-66.5,12-67.2-1.2
		C375.5,295.2,401.6,305.5,399.7,297c-1.7-7.7-13.4-15.2-21.1-33.9c-6.7-16.4-92.5-141.7,23.8-123.1c4.3-0.9-30.3-110.6-139.2-112.4
		C154.4,25.8,158,161.4,158,161.4"/>
	<path class="st2" d="M221.3,308.6c-15.2,16.9-10.7,19.9-41,26.2c-30.7,6.3-12.7,17.6-0.9,20.5c14.3,3.6,47.3,8.6,69.6-22.6
		c6.8-9.5,0-24.7-9.4-28.5C235.1,302.3,229,299.9,221.3,308.6L221.3,308.6z"/>
	<path class="st2" d="M220.3,308.3c-1.5-10,3.3-21.8,8.4-35.7c7.7-20.8,25.6-41.6,11.3-107.6c-10.6-49.2-82-10.2-82.1-3.6
		c0,6.7,3.2,33.8-1.2,65.4c-5.8,41.2,26.2,76.1,63.1,72.6"/>
	<path class="st4" d="M203.3,160.4c-0.3,2.3,4.2,8.4,10,9.2c5.8,0.8,10.9-3.9,11.2-6.2c0.3-2.3-4.2-4.8-10-5.6
		C208.6,156.9,203.6,158.1,203.3,160.4L203.3,160.4z"/>
	<path class="st5" d="M381.5,155.7c0.3,2.3-4.2,8.4-10,9.2c-5.9,0.8-10.9-3.9-11.2-6.2c-0.3-2.3,4.2-4.8,10-5.6
		C376.1,152.3,381.1,153.5,381.5,155.7L381.5,155.7z"/>
	<path class="st2" d="M402.4,140c1,17.9-3.8,30-4.5,49.1c-0.9,27.7,13.2,59.3-8,91"/>
	<path class="st6" d="M10.6,69.4"/>
</g>
</svg>
