<?xml version="1.0" encoding="utf-8"?>
<!-- Generator: Adobe Illustrator 21.0.2, SVG Export Plug-In . SVG Version: 6.00 Build 0)  -->
<svg version="1.1" id="Layer_1" xmlns="http://www.w3.org/2000/svg" xmlns:xlink="http://www.w3.org/1999/xlink" x="0px" y="0px"
	 viewBox="0 0 500 500" style="enable-background:new 0 0 500 500;" xml:space="preserve">
<style type="text/css">
	.st0{fill:#CD6799;}
</style>
<path class="st0" d="M426.8,280.3c-16.6,0.1-31.1,4.1-43.2,10c-4.4-8.8-8.9-16.6-9.7-22.4c-0.9-6.7-1.9-10.8-0.9-18.8
	c1-8,5.8-19.4,5.7-20.3s-1-5-10.6-5.1c-9.6-0.1-17.9,1.8-18.8,4.4c-1,2.5-2.8,8.3-4,14.2c-1.7,8.7-19.2,39.8-29.2,56.1
	c-3.2-6.4-6-11.9-6.6-16.4c-0.9-6.7-1.9-10.8-0.9-18.8c1-8,5.8-19.4,5.7-20.3s-1-5-10.6-5.1c-9.6-0.1-17.9,1.8-18.8,4.4
	c-1,2.5-2,8.5-4,14.2c-2,5.8-25.3,57.7-31.4,71.1c-3.1,6.9-5.8,12.4-7.8,16.1l0,0c0,0-0.1,0.3-0.3,0.7c-1.7,3.2-2.6,5-2.6,5
	s0,0,0,0.1c-1.3,2.4-2.7,4.5-3.4,4.5c-0.5,0-1.5-6.3,0.2-14.8c3.5-18,11.8-46.1,11.7-47c0-0.5,1.6-5.4-5.4-7.9
	c-6.8-2.5-9.2,1.7-9.8,1.7s-1,1.5-1,1.5s7.6-31.5-14.5-31.5c-13.8,0-32.8,15.1-42.2,28.7c-5.9,3.2-18.6,10.1-32.1,17.5
	c-5.1,2.9-10.5,5.8-15.4,8.5c-0.3-0.3-0.7-0.8-1-1.1c-26.7-28.5-76-48.6-73.9-86.9c0.8-13.9,5.6-50.5,94.7-95
	c73.4-36.2,131.7-26.1,141.8-3.9c14.5,31.7-31.3,90.6-107.1,99.1c-28.9,3.2-44.1-7.9-47.9-12.1c-4-4.4-4.6-4.6-6.1-3.7
	c-2.4,1.3-0.9,5.2,0,7.5c2.3,5.9,11.6,16.4,27.4,21.5c13.9,4.5,47.8,7.1,88.9-8.8c45.9-17.8,81.8-67.2,71.3-108.6
	c-10.5-42-80.2-55.8-146.2-32.4c-39.2,13.9-81.7,35.9-112.3,64.5c-36.3,34-42.1,63.5-39.7,75.9c8.5,43.9,69,72.5,93.2,93.7
	c-1.2,0.7-2.4,1.3-3.3,1.8c-12.1,6-58.3,30.1-69.8,55.7c-13.1,28.9,2.1,49.7,12.1,52.4c31.1,8.6,63.1-6.9,80.2-32.5
	c17.2-25.6,15.1-58.9,7.1-74.1c-0.1-0.2-0.2-0.3-0.3-0.5c3.1-1.8,6.4-3.7,9.5-5.6c6.2-3.7,12.3-7.1,17.5-9.8
	c-3,8.1-5.1,17.8-6.2,31.7c-1.3,16.4,5.4,37.6,14.2,46c3.9,3.7,8.5,3.7,11.5,3.7c10.3,0,14.9-8.5,20-18.6
	c6.3-12.4,11.9-26.7,11.9-26.7s-7.1,38.9,12.1,38.9c7,0,14-9.1,17.2-13.7c0,0.1,0,0.1,0,0.1s0.2-0.3,0.5-0.9
	c0.7-1.1,1.1-1.8,1.1-1.8s0-0.1,0-0.2c2.8-4.9,9.1-15.9,18.4-34.3c12-23.7,23.6-53.3,23.6-53.3s1,7.2,4.6,19.3
	c2.1,7.1,6.4,14.8,9.9,22.3c-2.8,3.9-4.5,6.1-4.5,6.1s0,0,0.1,0.1c-2.3,3-4.7,6.2-7.4,9.3c-9.5,11.3-20.8,24.3-22.4,28.1
	c-1.8,4.4-1.4,7.7,2.1,10.3c2.5,1.9,7.1,2.2,11.7,1.9c8.5-0.6,14.6-2.7,17.5-4c4.6-1.7,10-4.2,15.1-7.9c9.3-6.9,15-16.7,14.5-29.7
	c-0.3-7.1-2.6-14.3-5.5-21c0.9-1.2,1.7-2.4,2.5-3.7c14.7-21.5,26.1-45.1,26.1-45.1s1,7.2,4.6,19.3c1.7,6.1,5.3,12.7,8.5,19.2
	c-13.9,11.2-22.4,24.3-25.4,32.8c-5.5,15.9-1.2,23,6.9,24.7c3.7,0.8,8.9-1,12.7-2.6c4.9-1.6,10.6-4.3,16.1-8.3
	c9.3-6.9,18.3-16.5,17.8-29.4c-0.3-5.9-1.8-11.8-4-17.4c11.8-4.9,26.9-7.6,46.3-5.3c41.5,4.9,49.7,30.8,48.1,41.6
	s-10.3,16.8-13.2,18.6c-2.9,1.8-3.8,2.4-3.6,3.7c0.3,1.9,1.7,1.8,4.2,1.5c3.4-0.6,21.8-8.8,22.6-28.8
	C494.4,308,470,280.1,426.8,280.3z M106.9,388.2c-13.8,15-32.9,20.6-41.2,15.9c-8.9-5.1-5.4-27.3,11.5-43.1
	c10.3-9.7,23.5-18.6,32.3-24.1c2-1.2,5-3,8.5-5.1c0.6-0.3,1-0.5,1-0.5l0,0c0.7-0.4,1.4-0.9,2.1-1.3
	C127.3,352.5,121.4,372.4,106.9,388.2z M207.1,320.1c-4.8,11.7-14.8,41.6-20.9,39.9c-5.2-1.4-8.5-24-1-46.4
	c3.7-11.2,11.7-24.7,16.3-29.9c7.5-8.4,15.8-11.2,17.8-7.8C221.7,280.3,210.1,312.7,207.1,320.1z M289.8,359.6c-2,1-3.9,1.7-4.8,1.2
	c-0.6-0.3,0.9-1.7,0.9-1.7s10.4-11.2,14.5-16.2c2.4-3,5.1-6.4,8.1-10.4c0,0.3,0,0.8,0,1.1C308.4,347,295.5,356,289.8,359.6z
	 M353.6,345.1c-1.5-1-1.2-4.5,3.7-15.4c1.9-4.3,6.4-11.4,14.2-18.3c0.9,2.8,1.5,5.5,1.4,8C372.8,336.2,360.8,342.5,353.6,345.1z"/>
</svg>
