<?xml version="1.0" encoding="utf-8"?>
<!-- Generator: Adobe Illustrator 21.0.2, SVG Export Plug-In . SVG Version: 6.00 Build 0)  -->
<svg version="1.1" id="Layer_1" xmlns="http://www.w3.org/2000/svg" xmlns:xlink="http://www.w3.org/1999/xlink" x="0px" y="0px"
	 viewBox="0 0 500 500" style="enable-background:new 0 0 500 500;" xml:space="preserve">
<style type="text/css">
	.st0{fill:#FA7343;}
</style>
<path class="st0" d="M455.5,338.3L455.5,338.3c1.2-2.3,1.2-4.6,2.3-6.9C485.5,222.9,419.7,95.9,306.6,29
	c49.6,66.9,69.2,146.5,51.9,218.1c-1.2,5.8-3.5,12.7-5.8,18.5c-2.3-1.2-5.8-3.5-9.2-5.8c0,0-111.9-69.2-231.9-190.4
	c-3.5-3.5,64.6,96.9,140.8,176.6c-35.8-20.8-137.3-93.5-200.8-152.3c6.9,12.7,17.3,25.4,27.7,38.1
	c53.1,68.1,122.3,151.2,205.4,214.6c-58.9,35.8-140.8,38.1-223.9,0c-20.8-9.2-38.1-20.8-57.7-34.6C37.8,365.9,92,415.6,156.6,442.1
	c77.3,33.5,155.8,31.2,212.3,0l0,0c0,0,0,0,1.2,0c2.3-1.2,4.6-2.3,6.9-4.6c27.7-13.8,81.9-28.8,111.9,28.8
	C497,482.5,512.1,407.5,455.5,338.3z"/>
</svg>
