<?xml version="1.0" encoding="utf-8"?>
<!-- Generator: Adobe Illustrator 21.0.2, SVG Export Plug-In . SVG Version: 6.00 Build 0)  -->
<svg version="1.1" id="Layer_1" xmlns="http://www.w3.org/2000/svg" xmlns:xlink="http://www.w3.org/1999/xlink" x="0px" y="0px"
	 viewBox="0 0 500 500" style="enable-background:new 0 0 500 500;" xml:space="preserve">
<style type="text/css">
	.st0{fill:#384E80;}
	.st1{fill:#FFFFFF;}
</style>
<rect y="148.7" class="st0" width="500" height="208"/>
<path class="st1" d="M62.3,200.6H36.4V281H25.8v-80.4H0v-9.5h62.3V200.6z"/>
<path class="st1" d="M111.2,216.8l-29.6,74.5c-5.2,13.3-12.7,19.9-22.1,19.9c-2.7,0-4.9-0.3-6.6-0.8v-9.2c2.2,0.8,4.3,1.1,6,1.1
	c5.2,0,9-3.2,11.7-9.3l5.1-12.2l-25-64.1H62l17.4,49.4c0.2,0.6,0.6,2.2,1.3,4.9H81c0.2-0.9,0.6-2.5,1.3-4.7l18.2-49.5H111.2z
	 M128,271.7h-0.3v38.8h-10.3v-93.6h10.3V228h0.3c5.1-8.5,12.5-12.8,22.1-12.8c8.2,0,14.7,2.8,19.3,8.5c4.6,5.7,7,13.4,7,23.1
	c0,10.8-2.7,19.3-7.9,25.8c-5.2,6.5-12.3,9.6-21.4,9.6C139,282.6,132.6,278.9,128,271.7L128,271.7z M127.8,245.9v9
	c0,5.4,1.7,9.8,5.2,13.4c3.5,3.6,7.8,5.5,13.1,5.5c6.2,0,11.1-2.4,14.7-7.1c3.5-4.7,5.2-11.4,5.2-19.9c0-7.1-1.6-12.8-4.9-16.8
	c-3.3-4.1-7.8-6-13.4-6c-6,0-10.8,2.1-14.4,6.2C129.5,234.3,127.8,239.6,127.8,245.9L127.8,245.9z M239.3,251.4h-45.2
	c0.2,7.1,2.1,12.7,5.7,16.6s8.7,5.9,15.2,5.9c7.3,0,13.9-2.4,19.9-7.1v9.6c-5.7,4.1-13.1,6.2-22.3,6.2c-9,0-16.1-2.8-21.4-8.7
	c-5.2-5.9-7.8-14.1-7.8-24.5c0-10,2.8-18.2,8.5-24.4c5.7-6.3,12.7-9.5,21-9.5c8.4,0,14.9,2.7,19.5,8.2c4.6,5.4,7,13,7,22.6
	L239.3,251.4z M228.7,242.7c0-6-1.4-10.6-4.3-13.9c-2.8-3.3-6.8-4.9-11.7-4.9c-4.9,0-9,1.7-12.3,5.2c-3.3,3.5-5.5,8.1-6.3,13.6
	H228.7z M244.4,277.8v-7.1c6.5,4.1,13,6.2,19.6,6.2c7,0,12.3-1.4,16-4.4c3.6-3,5.4-7,5.4-12.2c0-4.6-1.3-8.2-3.6-11.1
	c-2.4-2.7-7.8-6.5-15.8-11.2c-9.2-5.4-14.9-9.8-17.2-13.3c-2.4-3.6-3.6-7.8-3.6-12.3c0-6.3,2.5-11.7,7.4-16.1
	c4.9-4.4,11.5-6.6,19.8-6.6c5.4,0,10.8,0.9,16,2.7v6.5c-5.2-2.4-10.9-3.6-16.9-3.6c-6.2,0-10.9,1.6-14.6,4.6
	c-3.6,3.2-5.4,7-5.4,11.7c0,4.6,1.3,8.2,3.6,10.9s7.8,6.5,15.8,11.1c8.4,4.7,13.9,9,16.8,12.7c2.8,3.6,4.1,7.9,4.1,12.8
	c0,7-2.4,12.5-7.1,16.9s-11.5,6.5-20.2,6.5c-3.2,0-6.6-0.5-10.8-1.4C249.4,279.9,246.4,279.1,244.4,277.8L244.4,277.8z M345.1,278.1
	c-4.7,2.8-10.4,4.4-17.1,4.4c-8.7,0-15.8-3-21.2-9c-5.4-6-8.1-13.8-8.1-23.6c0-10.1,3-18.5,9-25c6-6.5,13.8-9.8,23.3-9.8
	c4.9,0,9.6,0.9,14.2,3v6.5c-4.6-2.8-9.6-4.3-15-4.3c-7.6,0-13.6,2.7-18.3,8.1c-4.7,5.4-7,12.5-7,21c0,8.4,2.2,15,6.5,20.1
	c4.3,5.1,10,7.6,16.9,7.6c6.5,0,12-1.7,16.8-5.1V278.1L345.1,278.1z M383.4,222.8c-1.9-1.4-4.1-2.1-6.8-2.1c-5.1,0-9.3,2.7-12.7,7.9
	c-3.5,5.2-5.1,12.7-5.1,22.3v30.2h-5.7v-64.4h5.7V231h0.3c1.4-4.9,3.8-8.7,7-11.4s6.8-4.1,11.1-4.1c2.4,0,4.6,0.3,6.3,1.1v6.2H383.4
	z M392.6,200.6c-1.3,0-2.4-0.5-3.3-1.4c-0.9-0.9-1.4-2.1-1.4-3.5c0-1.4,0.5-2.5,1.4-3.3s2.1-1.3,3.3-1.3s2.4,0.5,3.5,1.3
	c0.9,0.8,1.4,1.9,1.4,3.3c0,1.3-0.5,2.5-1.4,3.5C395,200.2,393.9,200.6,392.6,200.6z M389.8,281v-64.2h5.7V281H389.8z M415.2,269.6
	h-0.3v41h-5.7v-93.8h5.7v13.3h0.3c2.4-4.7,5.5-8.4,9.8-10.9c4.3-2.5,9-3.8,14.1-3.8c8.2,0,14.6,2.8,19.1,8.4
	c4.6,5.7,6.8,13.3,6.8,22.9c0,10.8-2.7,19.5-7.9,26.1c-5.2,6.6-12.2,10-20.7,10C426.9,282.6,419.8,278.3,415.2,269.6z M414.9,245.7
	v8.1c0,6.5,2.1,12,6,16.6c4.1,4.6,9.3,7,16,7c6.5,0,11.9-2.8,16-8.4c4.1-5.7,6.2-13,6.2-22.1c0-8.1-1.9-14.4-5.7-19.1
	c-3.8-4.7-8.7-7.1-15-7.1c-7.4,0-13.3,2.5-17.4,7.6C416.8,233.2,414.9,238.9,414.9,245.7z M500,280c-3,1.4-5.9,2.1-8.4,2.1
	c-9.5,0-14.2-5.7-14.2-17.1v-42.9h-11.5v-5.2h11.5v-16.8l2.8-0.9l2.8-0.9v18.7H500v5.2h-16.9v42.4c0,4.4,0.6,7.6,2.1,9.6
	c1.4,2.1,3.8,3,7.1,3c2.4,0,4.9-0.8,7.8-2.4L500,280L500,280z"/>
</svg>
