<svg id="Layer_1" data-name="Layer 1" xmlns="http://www.w3.org/2000/svg" viewBox="0 0 500 500"><defs><style>.cls-1{fill:#dd4814;}.cls-2{fill:#fff;}</style></defs><title>TransferBid_Letterhead_02_MidaArtboard 1</title><circle class="cls-1" cx="250" cy="250" r="250"/><g id="U"><circle class="cls-2" cx="80" cy="250" r="33.38"/><path class="cls-2" d="M169.56,370.64a145.24,145.24,0,0,1-60-84.29,46.87,46.87,0,0,0,0-72.7,145.24,145.24,0,0,1,60-84.29L194,170.23a97.46,97.46,0,0,0,0,159.53Z"/></g><g id="U-2" data-name="U"><circle class="cls-2" cx="335" cy="102.78" r="33.38" transform="translate(78.49 341.51) rotate(-60)"/><path class="cls-2" d="M185.74,120a145.24,145.24,0,0,1,103-9.78,46.87,46.87,0,0,0,63,36.35,145.24,145.24,0,0,1,43,94.08l-47.6.7a97.46,97.46,0,0,0-138.16-79.77Z"/></g><g id="U-3" data-name="U"><circle class="cls-2" cx="335" cy="397.22" r="33.38" transform="translate(-153.73 220.72) rotate(-30)"/><path class="cls-2" d="M394.7,259.35a145.24,145.24,0,0,1-43,94.08,46.87,46.87,0,0,0-63,36.35,145.24,145.24,0,0,1-103-9.78l23.2-41.57A97.46,97.46,0,0,0,347.1,258.65Z"/></g></svg>