<?xml version="1.0" encoding="utf-8"?>
<!-- Generator: Adobe Illustrator 21.0.2, SVG Export Plug-In . SVG Version: 6.00 Build 0)  -->
<svg version="1.1" id="ps_x5F_cc_x5F_app_x5F_RGB.svg"
	 xmlns="http://www.w3.org/2000/svg" xmlns:xlink="http://www.w3.org/1999/xlink" x="0px" y="0px" viewBox="0 0 500 500"
	 style="enable-background:new 0 0 500 500;" xml:space="preserve">
<style type="text/css">
	.st0{fill:#2E001E;}
	.st1{fill:#FF2BC2;}
</style>
<g>
	<rect x="22.6" y="28.8" class="st0" width="456.7" height="444.2"/>
</g>
<g>
	<path class="st1" d="M1.8,8v485.8H500V8H1.8z M22.6,28.8h456.7V473H22.6V28.8z"/>
</g>
<path class="st1" d="M363.6,212.1c-3.1-1.5-7.1-2.1-12-2.1c-26.2,0-43.6,20.1-43.6,53.6c0,38.2,17.9,53.6,41.1,53.6
	c5,0,10.4-0.6,14.3-2.3V212.1H363.6z M270.6,265.2c0-48.4,31.1-86.1,82.2-86.1c4.4,0,6.6,0,10.8,0.4v-54c0-1.2,1-2.1,2.1-2.1h33.4
	c1.7,0,2.1,0.6,2.1,1.7v189.7c0,5.6,0,12.7,1,20.3c0,1.5,0,1.7-1.2,2.3c-17.4,8.3-35.7,12-53.1,12
	C302.8,349.5,270.6,321.7,270.6,265.2z M199.8,231.6L258,344.3c1,1.7,0.4,3.3-1.2,3.3h-36.1c-2.3,0-3.3-0.6-4.4-2.7
	c-13.3-27.4-26.8-55.8-40.7-85.3h-0.4c-12.5,27.8-26.2,58.1-39.4,85.5c-1,1.7-2.1,2.3-3.7,2.3H97.5c-2.1,0-2.3-1.7-1.2-2.9
	l56.9-109.4l-55-108.8c-1.2-1.7,0-3.1,1.5-3.1h35.7c2.1,0,3.1,0.4,3.7,2.3c13.1,27.6,26.4,54.8,38.8,82.6h0.4
	c12-27.4,25.3-55,38-82.2c1-1.7,1.7-2.7,3.7-2.7h33.4c1.7,0,2.3,1.2,1.2,3.1L199.8,231.6z"/>
</svg>
